LeckerliOne-Regular.ufo
<glyph name="quotedbl" format="1">
  <advance width="282"/>
  <unicode hex="0022"/>
  <outline>
    <contour>
      <point x="60" y="423" type="line"/>
      <point x="112" y="423" type="line"/>
      <point x="112" y="615" type="line"/>
      <point x="50" y="615" type="line"/>
    </contour>
    <contour>
      <point x="160" y="423" type="line"/>
      <point x="222" y="423" type="line"/>
      <point x="222" y="615" type="line"/>
      <point x="160" y="615" type="line"/>
    </contour>
  </outline>
</glyph>
<glyph name="dollar" format="1">
  <advance width="570"/>
  <unicode hex="0024"/>
  <outline>
    <contour>
      <point x="406" y="838" type="curve" smooth="yes"/>
      <point x="394" y="797"/>
      <point x="384" y="760"/>
      <point x="375" y="725" type="curve"/>
      <point x="370" y="725"/>
      <point x="364" y="726"/>
      <point x="359" y="726" type="curve" smooth="yes"/>
      <point x="255" y="726"/>
      <point x="150" y="662"/>
      <point x="150" y="538" type="curve" smooth="yes"/>
      <point x="150" y="443"/>
      <point x="222" y="410"/>
      <point x="288" y="377" type="curve"/>
      <point x="279" y="350" type="line" smooth="yes"/>
      <point x="255" y="278"/>
      <point x="227" y="208"/>
      <point x="206" y="146" type="curve"/>
      <point x="175" y="165"/>
      <point x="160" y="206"/>
      <point x="160" y="241" type="curve" smooth="yes"/>
      <point x="160" y="292"/>
      <point x="189" y="331"/>
      <point x="189" y="374" type="curve" smooth="yes"/>
      <point x="189" y="394"/>
      <point x="166" y="396"/>
      <point x="153" y="396" type="curve" smooth="yes"/>
      <point x="88" y="396"/>
      <point x="30" y="297"/>
      <point x="30" y="215" type="curve" smooth="yes"/>
      <point x="30" y="109"/>
      <point x="89" y="50"/>
      <point x="168" y="30" type="curve"/>
      <point x="160" y="2"/>
      <point x="156" y="-20"/>
      <point x="156" y="-35" type="curve" smooth="yes"/>
      <point x="156" y="-74"/>
      <point x="182" y="-114"/>
      <point x="214" y="-114" type="curve" smooth="yes"/>
      <point x="231" y="-114"/>
      <point x="248" y="-8"/>
      <point x="256" y="23" type="curve"/>
      <point x="390" y="32"/>
      <point x="540" y="124"/>
      <point x="540" y="269" type="curve" smooth="yes"/>
      <point x="540" y="394"/>
      <point x="450" y="426"/>
      <point x="375" y="460" type="curve"/>
      <point x="421" y="600" type="line"/>
      <point x="449" y="565"/>
      <point x="457" y="515"/>
      <point x="484" y="515" type="curve" smooth="yes"/>
      <point x="509" y="515"/>
      <point x="514" y="540"/>
      <point x="514" y="574" type="curve" smooth="yes"/>
      <point x="514" y="633"/>
      <point x="491" y="674"/>
      <point x="456" y="698" type="curve"/>
      <point x="466" y="731"/>
      <point x="474" y="757"/>
      <point x="474" y="768" type="curve" smooth="yes"/>
      <point x="474" y="798"/>
      <point x="450" y="846"/>
      <point x="417" y="846" type="curve"/>
      <point x="411" y="845"/>
      <point x="407" y="842"/>
    </contour>
    <contour>
      <point x="394" y="258" type="curve" smooth="yes"/>
      <point x="394" y="196"/>
      <point x="346" y="153"/>
      <point x="284" y="141" type="curve"/>
      <point x="301" y="209"/>
      <point x="319" y="276"/>
      <point x="340" y="347" type="curve"/>
      <point x="371" y="326"/>
      <point x="394" y="300"/>
    </contour>
    <contour>
      <point x="276" y="571" type="curve" smooth="yes"/>
      <point x="276" y="610"/>
      <point x="307" y="635"/>
      <point x="352" y="635" type="curve"/>
      <point x="339" y="581"/>
      <point x="329" y="534"/>
      <point x="318" y="491" type="curve"/>
      <point x="293" y="509"/>
      <point x="276" y="533"/>
    </contour>
  </outline>
</glyph>
<glyph name="percent" format="1">
  <advance width="681"/>
  <unicode hex="0025"/>
  <outline>
    <contour>
      <point x="305" y="713" type="curve" smooth="yes"/>
      <point x="305" y="738"/>
      <point x="279" y="761"/>
      <point x="227" y="761" type="curve" smooth="yes"/>
      <point x="135" y="761"/>
      <point x="80" y="664"/>
      <point x="80" y="582" type="curve" smooth="yes"/>
      <point x="80" y="497"/>
      <point x="134" y="458"/>
      <point x="193" y="458" type="curve" smooth="yes"/>
      <point x="270" y="458"/>
      <point x="337" y="515"/>
      <point x="337" y="621" type="curve" smooth="yes"/>
      <point x="337" y="663"/>
      <point x="321" y="692"/>
      <point x="295" y="692" type="curve" smooth="yes"/>
      <point x="285" y="692"/>
      <point x="277" y="686"/>
      <point x="277" y="678" type="curve" smooth="yes"/>
      <point x="277" y="659"/>
      <point x="285" y="644"/>
      <point x="285" y="627" type="curve" smooth="yes"/>
      <point x="285" y="564"/>
      <point x="244" y="527"/>
      <point x="208" y="527" type="curve" smooth="yes"/>
      <point x="181" y="527"/>
      <point x="159" y="548"/>
      <point x="159" y="596" type="curve" smooth="yes"/>
      <point x="159" y="647"/>
      <point x="182" y="705"/>
      <point x="224" y="705" type="curve" smooth="yes"/>
      <point x="253" y="705"/>
      <point x="268" y="700"/>
      <point x="285" y="700" type="curve" smooth="yes"/>
      <point x="295" y="700"/>
      <point x="305" y="703"/>
    </contour>
    <contour>
      <point x="121" y="37" type="line"/>
      <point x="119" y="31"/>
      <point x="118" y="26"/>
      <point x="118" y="20" type="curve" smooth="yes"/>
      <point x="118" y="-6"/>
      <point x="145" y="-54"/>
      <point x="174" y="-54" type="curve" smooth="yes"/>
      <point x="177" y="-54"/>
      <point x="179" y="-53"/>
      <point x="180" y="-51" type="curve" smooth="yes"/>
      <point x="214" y="54"/>
      <point x="355" y="289"/>
      <point x="461" y="456" type="curve" smooth="yes"/>
      <point x="524" y="555"/>
      <point x="579" y="621"/>
      <point x="579" y="669" type="curve" smooth="yes"/>
      <point x="579" y="703"/>
      <point x="545" y="751"/>
      <point x="526" y="751" type="curve" smooth="yes"/>
      <point x="521" y="751"/>
      <point x="518" y="748"/>
      <point x="516" y="743" type="curve"/>
    </contour>
    <contour>
      <point x="599" y="243" type="curve" smooth="yes"/>
      <point x="599" y="268"/>
      <point x="573" y="291"/>
      <point x="521" y="291" type="curve" smooth="yes"/>
      <point x="429" y="291"/>
      <point x="374" y="194"/>
      <point x="374" y="112" type="curve" smooth="yes"/>
      <point x="374" y="27"/>
      <point x="428" y="-12"/>
      <point x="487" y="-12" type="curve" smooth="yes"/>
      <point x="564" y="-12"/>
      <point x="631" y="45"/>
      <point x="631" y="151" type="curve" smooth="yes"/>
      <point x="631" y="193"/>
      <point x="615" y="222"/>
      <point x="589" y="222" type="curve" smooth="yes"/>
      <point x="579" y="222"/>
      <point x="571" y="216"/>
      <point x="571" y="208" type="curve" smooth="yes"/>
      <point x="571" y="189"/>
      <point x="579" y="174"/>
      <point x="579" y="157" type="curve" smooth="yes"/>
      <point x="579" y="94"/>
      <point x="538" y="57"/>
      <point x="502" y="57" type="curve" smooth="yes"/>
      <point x="475" y="57"/>
      <point x="453" y="78"/>
      <point x="453" y="126" type="curve" smooth="yes"/>
      <point x="453" y="177"/>
      <point x="476" y="235"/>
      <point x="518" y="235" type="curve" smooth="yes"/>
      <point x="547" y="235"/>
      <point x="562" y="230"/>
      <point x="579" y="230" type="curve" smooth="yes"/>
      <point x="589" y="230"/>
      <point x="599" y="233"/>
    </contour>
  </outline>
</glyph>
<glyph name="parenleft" format="1">
  <advance width="601"/>
  <unicode hex="0028"/>
  <outline>
    <contour>
      <point x="499" y="819" type="curve" smooth="yes"/>
      <point x="283" y="738"/>
      <point x="70" y="586"/>
      <point x="70" y="306" type="curve" smooth="yes"/>
      <point x="70" y="83"/>
      <point x="229" y="-102"/>
      <point x="400" y="-221" type="curve" smooth="yes"/>
      <point x="409" y="-227"/>
      <point x="419" y="-230"/>
      <point x="430" y="-230" type="curve" smooth="yes"/>
      <point x="457" y="-230"/>
      <point x="491" y="-214"/>
      <point x="491" y="-184" type="curve" smooth="yes"/>
      <point x="491" y="-176"/>
      <point x="488" y="-167"/>
      <point x="479" y="-161" type="curve" smooth="yes"/>
      <point x="328" y="-57"/>
      <point x="214" y="121"/>
      <point x="214" y="338" type="curve" smooth="yes"/>
      <point x="214" y="554"/>
      <point x="406" y="703"/>
      <point x="518" y="746" type="curve" smooth="yes"/>
      <point x="536" y="753"/>
      <point x="561" y="766"/>
      <point x="561" y="788" type="curve" smooth="yes"/>
      <point x="561" y="812"/>
      <point x="533" y="822"/>
      <point x="516" y="822" type="curve" smooth="yes"/>
      <point x="510" y="822"/>
      <point x="504" y="821"/>
    </contour>
  </outline>
</glyph>
<glyph name="parenright" format="1">
  <advance width="601"/>
  <unicode hex="0029"/>
  <outline>
    <contour>
      <point x="132" y="-227" type="curve" smooth="yes"/>
      <point x="348" y="-147"/>
      <point x="561" y="6"/>
      <point x="561" y="286" type="curve" smooth="yes"/>
      <point x="561" y="508"/>
      <point x="402" y="694"/>
      <point x="231" y="813" type="curve" smooth="yes"/>
      <point x="222" y="819"/>
      <point x="212" y="822"/>
      <point x="201" y="822" type="curve" smooth="yes"/>
      <point x="174" y="822"/>
      <point x="140" y="806"/>
      <point x="140" y="776" type="curve" smooth="yes"/>
      <point x="140" y="768"/>
      <point x="143" y="759"/>
      <point x="152" y="753" type="curve" smooth="yes"/>
      <point x="303" y="649"/>
      <point x="417" y="471"/>
      <point x="417" y="254" type="curve" smooth="yes"/>
      <point x="417" y="38"/>
      <point x="225" y="-111"/>
      <point x="113" y="-154" type="curve" smooth="yes"/>
      <point x="95" y="-161"/>
      <point x="70" y="-174"/>
      <point x="70" y="-196" type="curve" smooth="yes"/>
      <point x="70" y="-220"/>
      <point x="98" y="-230"/>
      <point x="115" y="-230" type="curve" smooth="yes"/>
      <point x="121" y="-230"/>
      <point x="127" y="-229"/>
    </contour>
  </outline>
</glyph>
<glyph name="asterisk" format="1">
  <advance width="534"/>
  <unicode hex="002A"/>
  <outline>
    <contour>
      <point x="401" y="668" type="curve"/>
      <point x="401" y="715"/>
      <point x="447" y="764"/>
      <point x="447" y="781" type="curve" smooth="yes"/>
      <point x="447" y="789"/>
      <point x="434" y="790"/>
      <point x="421" y="790" type="curve" smooth="yes"/>
      <point x="396" y="790"/>
      <point x="351" y="783"/>
      <point x="337" y="758" type="curve" smooth="yes"/>
      <point x="327" y="739"/>
      <point x="317" y="720"/>
      <point x="309" y="701" type="curve"/>
      <point x="280" y="714"/>
      <point x="254" y="725"/>
      <point x="229" y="725" type="curve" smooth="yes"/>
      <point x="203" y="725"/>
      <point x="165" y="705"/>
      <point x="165" y="677" type="curve" smooth="yes"/>
      <point x="165" y="644"/>
      <point x="216" y="650"/>
      <point x="256" y="620" type="curve"/>
      <point x="219" y="590"/>
      <point x="130" y="540"/>
      <point x="130" y="503" type="curve" smooth="yes"/>
      <point x="130" y="481"/>
      <point x="149" y="465"/>
      <point x="177" y="465" type="curve" smooth="yes"/>
      <point x="198" y="465"/>
      <point x="217" y="475"/>
      <point x="232" y="490" type="curve" smooth="yes"/>
      <point x="256" y="515"/>
      <point x="286" y="534"/>
      <point x="314" y="555" type="curve"/>
      <point x="326" y="530"/>
      <point x="338" y="505"/>
      <point x="347" y="479" type="curve" smooth="yes"/>
      <point x="350" y="470"/>
      <point x="361" y="466"/>
      <point x="375" y="466" type="curve" smooth="yes"/>
      <point x="408" y="466"/>
      <point x="457" y="487"/>
      <point x="457" y="505" type="curve"/>
      <point x="444" y="545"/>
      <point x="426" y="579"/>
      <point x="410" y="614" type="curve"/>
      <point x="424" y="617"/>
      <point x="514" y="618"/>
      <point x="514" y="662" type="curve" smooth="yes"/>
      <point x="514" y="677"/>
      <point x="492" y="679"/>
      <point x="477" y="679" type="curve" smooth="yes"/>
      <point x="452" y="679"/>
      <point x="401" y="668"/>
    </contour>
  </outline>
</glyph>
<glyph name="hyphen" format="1">
  <advance width="392"/>
  <unicode hex="002D"/>
  <outline>
    <contour>
      <point x="183" y="361" type="curve" smooth="yes"/>
      <point x="109" y="361"/>
      <point x="46" y="343"/>
      <point x="46" y="280" type="curve" smooth="yes"/>
      <point x="46" y="273"/>
      <point x="49" y="271"/>
      <point x="52" y="271" type="curve" smooth="yes"/>
      <point x="82" y="271"/>
      <point x="129" y="273"/>
      <point x="197" y="273" type="curve" smooth="yes"/>
      <point x="217" y="273"/>
      <point x="272" y="266"/>
      <point x="286" y="266" type="curve" smooth="yes"/>
      <point x="308" y="266"/>
      <point x="353" y="319"/>
      <point x="353" y="341" type="curve" smooth="yes"/>
      <point x="353" y="354"/>
      <point x="349" y="358"/>
      <point x="341" y="358" type="curve" smooth="yes"/>
      <point x="318" y="358"/>
      <point x="240" y="361"/>
    </contour>
  </outline>
</glyph>
<glyph name="period" format="1">
  <advance width="414"/>
  <unicode hex="002E"/>
  <outline>
    <contour>
      <point x="110" y="38" type="curve"/>
      <point x="127" y="2"/>
      <point x="159" y="-29"/>
      <point x="197" y="-29" type="curve" smooth="yes"/>
      <point x="252" y="-29"/>
      <point x="304" y="36"/>
      <point x="304" y="108" type="curve" smooth="yes"/>
      <point x="304" y="136"/>
      <point x="291" y="156"/>
      <point x="256" y="156" type="curve" smooth="yes"/>
      <point x="195" y="156"/>
      <point x="136" y="106"/>
    </contour>
  </outline>
</glyph>
<glyph name="zero" format="1">
  <advance width="732"/>
  <unicode hex="0030"/>
  <outline>
    <contour>
      <point x="416" y="753" type="curve" smooth="yes"/>
      <point x="185" y="753"/>
      <point x="50" y="506"/>
      <point x="50" y="299" type="curve" smooth="yes"/>
      <point x="50" y="91"/>
      <point x="180" y="-7"/>
      <point x="322" y="-7" type="curve" smooth="yes"/>
      <point x="517" y="-7"/>
      <point x="682" y="136"/>
      <point x="682" y="405" type="curve" smooth="yes"/>
      <point x="682" y="579"/>
      <point x="572" y="618"/>
      <point x="521" y="618" type="curve" smooth="yes"/>
      <point x="506" y="618"/>
      <point x="496" y="614"/>
      <point x="496" y="607" type="curve" smooth="yes"/>
      <point x="496" y="557"/>
      <point x="595" y="556"/>
      <point x="595" y="419" type="curve" smooth="yes"/>
      <point x="595" y="237"/>
      <point x="471" y="126"/>
      <point x="363" y="126" type="curve" smooth="yes"/>
      <point x="280" y="126"/>
      <point x="207" y="191"/>
      <point x="207" y="337" type="curve" smooth="yes"/>
      <point x="207" y="484"/>
      <point x="278" y="657"/>
      <point x="408" y="657" type="curve" smooth="yes"/>
      <point x="487" y="657"/>
      <point x="515" y="639"/>
      <point x="567" y="639" type="curve" smooth="yes"/>
      <point x="584" y="639"/>
      <point x="597" y="641"/>
      <point x="597" y="650" type="curve" smooth="yes"/>
      <point x="597" y="695"/>
      <point x="536" y="753"/>
    </contour>
  </outline>
</glyph>
<glyph name="three" format="1">
  <advance width="597"/>
  <unicode hex="0033"/>
  <outline>
    <contour>
      <point x="288" y="753" type="curve" smooth="yes"/>
      <point x="143" y="753"/>
      <point x="63" y="647"/>
      <point x="63" y="578" type="curve" smooth="yes"/>
      <point x="63" y="571"/>
      <point x="68" y="562"/>
      <point x="76" y="562" type="curve" smooth="yes"/>
      <point x="130" y="562"/>
      <point x="127" y="657"/>
      <point x="263" y="657" type="curve" smooth="yes"/>
      <point x="322" y="657"/>
      <point x="358" y="622"/>
      <point x="358" y="561" type="curve" smooth="yes"/>
      <point x="358" y="505"/>
      <point x="337" y="467"/>
      <point x="316" y="440" type="curve"/>
      <point x="301" y="444"/>
      <point x="288" y="446"/>
      <point x="280" y="446" type="curve" smooth="yes"/>
      <point x="239" y="446"/>
      <point x="187" y="440"/>
      <point x="187" y="400" type="curve" smooth="yes"/>
      <point x="187" y="360"/>
      <point x="239" y="351"/>
      <point x="281" y="351" type="curve" smooth="yes"/>
      <point x="296" y="351"/>
      <point x="310" y="352"/>
      <point x="324" y="355" type="curve"/>
      <point x="345" y="324"/>
      <point x="366" y="277"/>
      <point x="366" y="209" type="curve" smooth="yes"/>
      <point x="366" y="157"/>
      <point x="324" y="74"/>
      <point x="213" y="74" type="curve" smooth="yes"/>
      <point x="124" y="74"/>
      <point x="78" y="155"/>
      <point x="26" y="155" type="curve" smooth="yes"/>
      <point x="13" y="155"/>
      <point x="5" y="149"/>
      <point x="5" y="137" type="curve" smooth="yes"/>
      <point x="5" y="70"/>
      <point x="102" y="-22"/>
      <point x="235" y="-22" type="curve" smooth="yes"/>
      <point x="371" y="-22"/>
      <point x="532" y="50"/>
      <point x="532" y="198" type="curve" smooth="yes"/>
      <point x="532" y="295"/>
      <point x="477" y="358"/>
      <point x="418" y="396" type="curve"/>
      <point x="477" y="440"/>
      <point x="515" y="508"/>
      <point x="515" y="573" type="curve" smooth="yes"/>
      <point x="515" y="690"/>
      <point x="431" y="753"/>
    </contour>
  </outline>
</glyph>
<glyph name="four" format="1">
  <advance width="686"/>
  <unicode hex="0034"/>
  <outline>
    <contour>
      <point x="478" y="679" type="curve" smooth="yes"/>
      <point x="449" y="615"/>
      <point x="408" y="488"/>
      <point x="376" y="364" type="curve"/>
      <point x="297" y="364"/>
      <point x="225" y="363"/>
      <point x="179" y="345" type="curve"/>
      <point x="205" y="479"/>
      <point x="278" y="619"/>
      <point x="278" y="672" type="curve" smooth="yes"/>
      <point x="278" y="691"/>
      <point x="269" y="709"/>
      <point x="258" y="709" type="curve" smooth="yes"/>
      <point x="235" y="709"/>
      <point x="218" y="683"/>
      <point x="206" y="662" type="curve" smooth="yes"/>
      <point x="161" y="584"/>
      <point x="35" y="417"/>
      <point x="35" y="332" type="curve"/>
      <point x="52" y="289"/>
      <point x="79" y="262"/>
      <point x="129" y="238" type="curve"/>
      <point x="141" y="238" type="line" smooth="yes"/>
      <point x="189" y="240"/>
      <point x="258" y="256"/>
      <point x="353" y="262" type="curve"/>
      <point x="339" y="196"/>
      <point x="330" y="137"/>
      <point x="330" y="99" type="curve" smooth="yes"/>
      <point x="330" y="22"/>
      <point x="355" y="-8"/>
      <point x="439" y="-8" type="curve" smooth="yes"/>
      <point x="457" y="-8"/>
      <point x="479" y="-2"/>
      <point x="479" y="20" type="curve" smooth="yes"/>
      <point x="479" y="90"/>
      <point x="487" y="175"/>
      <point x="499" y="261" type="curve"/>
      <point x="541" y="259"/>
      <point x="585" y="257"/>
      <point x="601" y="257" type="curve" smooth="yes"/>
      <point x="631" y="257"/>
      <point x="645" y="268"/>
      <point x="656" y="294" type="curve" smooth="yes"/>
      <point x="662" y="310"/>
      <point x="676" y="334"/>
      <point x="676" y="342" type="curve" smooth="yes"/>
      <point x="676" y="370"/>
      <point x="609" y="361"/>
      <point x="514" y="363" type="curve"/>
      <point x="539" y="522"/>
      <point x="568" y="669"/>
      <point x="568" y="724" type="curve" smooth="yes"/>
      <point x="568" y="739"/>
      <point x="564" y="749"/>
      <point x="555" y="749" type="curve" smooth="yes"/>
      <point x="521" y="749"/>
      <point x="493" y="712"/>
    </contour>
  </outline>
</glyph>
<glyph name="eight" format="1">
  <advance width="603"/>
  <unicode hex="0038"/>
  <outline>
    <contour>
      <point x="323" y="753" type="curve" smooth="yes"/>
      <point x="195" y="753"/>
      <point x="109" y="688"/>
      <point x="109" y="565" type="curve" smooth="yes"/>
      <point x="109" y="471"/>
      <point x="172" y="430"/>
      <point x="238" y="391" type="curve"/>
      <point x="143" y="351"/>
      <point x="50" y="299"/>
      <point x="50" y="158" type="curve" smooth="yes"/>
      <point x="50" y="57"/>
      <point x="144" y="-25"/>
      <point x="283" y="-25" type="curve" smooth="yes"/>
      <point x="456" y="-25"/>
      <point x="553" y="93"/>
      <point x="553" y="215" type="curve" smooth="yes"/>
      <point x="553" y="302"/>
      <point x="503" y="354"/>
      <point x="442" y="394" type="curve"/>
      <point x="475" y="418"/>
      <point x="498" y="454"/>
      <point x="498" y="514" type="curve" smooth="yes"/>
      <point x="498" y="571"/>
      <point x="458" y="607"/>
      <point x="428" y="607" type="curve" smooth="yes"/>
      <point x="423" y="607"/>
      <point x="421" y="602"/>
      <point x="421" y="595" type="curve" smooth="yes"/>
      <point x="421" y="584"/>
      <point x="434" y="569"/>
      <point x="434" y="553" type="curve" smooth="yes"/>
      <point x="434" y="499"/>
      <point x="402" y="468"/>
      <point x="356" y="443" type="curve"/>
      <point x="287" y="480"/>
      <point x="226" y="515"/>
      <point x="226" y="580" type="curve" smooth="yes"/>
      <point x="226" y="626"/>
      <point x="263" y="657"/>
      <point x="315" y="657" type="curve" smooth="yes"/>
      <point x="407" y="657"/>
      <point x="440" y="616"/>
      <point x="491" y="616" type="curve" smooth="yes"/>
      <point x="497" y="616"/>
      <point x="499" y="620"/>
      <point x="499" y="625" type="curve" smooth="yes"/>
      <point x="499" y="684"/>
      <point x="415" y="753"/>
    </contour>
    <contour>
      <point x="393" y="202" type="curve" smooth="yes"/>
      <point x="393" y="141"/>
      <point x="352" y="103"/>
      <point x="288" y="103" type="curve" smooth="yes"/>
      <point x="239" y="103"/>
      <point x="206" y="134"/>
      <point x="206" y="175" type="curve" smooth="yes"/>
      <point x="206" y="273"/>
      <point x="261" y="309"/>
      <point x="324" y="337" type="curve"/>
      <point x="364" y="306"/>
      <point x="393" y="266"/>
    </contour>
  </outline>
</glyph>
<glyph name="nine" format="1">
  <advance width="692"/>
  <unicode hex="0039"/>
  <outline>
    <contour>
      <point x="253" y="74" type="curve" smooth="yes"/>
      <point x="164" y="74"/>
      <point x="118" y="155"/>
      <point x="66" y="155" type="curve" smooth="yes"/>
      <point x="53" y="155"/>
      <point x="45" y="149"/>
      <point x="45" y="137" type="curve" smooth="yes"/>
      <point x="45" y="70"/>
      <point x="142" y="-22"/>
      <point x="275" y="-22" type="curve" smooth="yes"/>
      <point x="559" y="-22"/>
      <point x="605" y="177"/>
      <point x="605" y="384" type="curve" smooth="yes"/>
      <point x="605" y="409"/>
      <point x="604" y="436"/>
      <point x="601" y="462" type="curve"/>
      <point x="631" y="487"/>
      <point x="652" y="515"/>
      <point x="652" y="530" type="curve" smooth="yes"/>
      <point x="652" y="540"/>
      <point x="646" y="548"/>
      <point x="638" y="548" type="curve" smooth="yes"/>
      <point x="622" y="548"/>
      <point x="606" y="537"/>
      <point x="589" y="526" type="curve"/>
      <point x="561" y="648"/>
      <point x="490" y="753"/>
      <point x="341" y="753" type="curve" smooth="yes"/>
      <point x="195" y="753"/>
      <point x="70" y="657"/>
      <point x="70" y="526" type="curve" smooth="yes"/>
      <point x="70" y="397"/>
      <point x="165" y="324"/>
      <point x="284" y="324" type="curve" smooth="yes"/>
      <point x="348" y="324"/>
      <point x="401" y="336"/>
      <point x="452" y="361" type="curve"/>
      <point x="452" y="355" type="line" smooth="yes"/>
      <point x="452" y="208"/>
      <point x="413" y="74"/>
    </contour>
    <contour>
      <point x="316" y="416" type="curve" smooth="yes"/>
      <point x="246" y="416"/>
      <point x="204" y="465"/>
      <point x="204" y="524" type="curve" smooth="yes"/>
      <point x="204" y="591"/>
      <point x="259" y="650"/>
      <point x="314" y="650" type="curve" smooth="yes"/>
      <point x="422" y="650"/>
      <point x="446" y="549"/>
      <point x="451" y="450" type="curve"/>
      <point x="407" y="426"/>
      <point x="370" y="416"/>
    </contour>
  </outline>
</glyph>
<glyph name="greater" format="1">
  <advance width="391"/>
  <unicode hex="003E"/>
  <outline>
    <contour>
      <point x="361" y="265" type="line"/>
      <point x="95" y="450" type="line"/>
      <point x="60" y="400" type="line"/>
      <point x="256" y="263" type="line"/>
      <point x="62" y="128" type="line"/>
      <point x="95" y="80" type="line"/>
    </contour>
  </outline>
</glyph>
<glyph name="question" format="1">
  <advance width="572"/>
  <unicode hex="003F"/>
  <outline>
    <contour>
      <point x="120" y="531" type="curve" smooth="yes"/>
      <point x="120" y="524"/>
      <point x="125" y="515"/>
      <point x="133" y="515" type="curve" smooth="yes"/>
      <point x="187" y="515"/>
      <point x="184" y="610"/>
      <point x="320" y="610" type="curve" smooth="yes"/>
      <point x="377" y="610"/>
      <point x="415" y="575"/>
      <point x="415" y="514" type="curve" smooth="yes"/>
      <point x="415" y="329"/>
      <point x="242" y="422"/>
      <point x="242" y="211" type="curve" smooth="yes"/>
      <point x="242" y="181"/>
      <point x="283" y="164"/>
      <point x="303" y="164" type="curve" smooth="yes"/>
      <point x="310" y="164"/>
      <point x="314" y="166"/>
      <point x="314" y="170" type="curve" smooth="yes"/>
      <point x="314" y="324"/>
      <point x="572" y="228"/>
      <point x="572" y="526" type="curve" smooth="yes"/>
      <point x="572" y="642"/>
      <point x="488" y="706"/>
      <point x="345" y="706" type="curve" smooth="yes"/>
      <point x="200" y="706"/>
      <point x="120" y="600"/>
    </contour>
    <contour>
      <point x="165" y="48" type="curve" smooth="yes"/>
      <point x="165" y="9"/>
      <point x="200" y="-29"/>
      <point x="231" y="-29" type="curve" smooth="yes"/>
      <point x="276" y="-29"/>
      <point x="318" y="24"/>
      <point x="318" y="83" type="curve" smooth="yes"/>
      <point x="318" y="105"/>
      <point x="307" y="122"/>
      <point x="279" y="122" type="curve" smooth="yes"/>
      <point x="229" y="122"/>
      <point x="165" y="107"/>
    </contour>
  </outline>
</glyph>
<glyph name="A" format="1">
  <advance width="695"/>
  <unicode hex="0041"/>
  <outline>
    <contour>
      <point x="506" y="750" type="move" name="topUC"/>
    </contour>
    <contour>
      <point x="545" y="-3" type="curve" smooth="yes"/>
      <point x="650" y="-3"/>
      <point x="775" y="111"/>
      <point x="775" y="198" type="curve" smooth="yes"/>
      <point x="775" y="221"/>
      <point x="767" y="236"/>
      <point x="757" y="236" type="curve" smooth="yes"/>
      <point x="739" y="236"/>
      <point x="646" y="112"/>
      <point x="605" y="112" type="curve" smooth="yes"/>
      <point x="585" y="112"/>
      <point x="582" y="132"/>
      <point x="582" y="164" type="curve" smooth="yes"/>
      <point x="582" y="244"/>
      <point x="689" y="410"/>
      <point x="689" y="566" type="curve" smooth="yes"/>
      <point x="689" y="670"/>
      <point x="641" y="757"/>
      <point x="503" y="757" type="curve" smooth="yes"/>
      <point x="348" y="757"/>
      <point x="233" y="585"/>
      <point x="164" y="409" type="curve"/>
      <point x="49" y="389"/>
      <point x="-20" y="339"/>
      <point x="-20" y="301" type="curve" smooth="yes"/>
      <point x="-20" y="295"/>
      <point x="-15" y="291"/>
      <point x="-7" y="291" type="curve" smooth="yes"/>
      <point x="26" y="291"/>
      <point x="71" y="299"/>
      <point x="129" y="306" type="curve"/>
      <point x="102" y="215"/>
      <point x="88" y="132"/>
      <point x="88" y="82" type="curve" smooth="yes"/>
      <point x="88" y="21"/>
      <point x="105" y="-15"/>
      <point x="138" y="-15" type="curve" smooth="yes"/>
      <point x="164" y="-15"/>
      <point x="187" y="-2"/>
      <point x="212" y="10" type="curve" smooth="yes"/>
      <point x="243" y="25"/>
      <point x="253" y="52"/>
      <point x="253" y="84" type="curve" smooth="yes"/>
      <point x="253" y="137"/>
      <point x="256" y="227"/>
      <point x="271" y="317" type="curve"/>
      <point x="285" y="317" type="line" smooth="yes"/>
      <point x="316" y="317"/>
      <point x="425" y="313"/>
      <point x="486" y="311" type="curve"/>
      <point x="462" y="237"/>
      <point x="441" y="161"/>
      <point x="441" y="103" type="curve" smooth="yes"/>
      <point x="441" y="40"/>
      <point x="467" y="-3"/>
    </contour>
    <contour>
      <point x="484" y="621" type="curve" smooth="yes"/>
      <point x="524" y="621"/>
      <point x="545" y="586"/>
      <point x="545" y="531" type="curve" smooth="yes"/>
      <point x="545" y="502"/>
      <point x="534" y="461"/>
      <point x="520" y="414" type="curve"/>
      <point x="293" y="417" type="line"/>
      <point x="325" y="528"/>
      <point x="383" y="621"/>
    </contour>
  </outline>
</glyph>
<glyph name="G" format="1">
  <advance width="672"/>
  <unicode hex="0047"/>
  <outline>
    <contour>
      <point x="514" y="332" type="curve" smooth="yes"/>
      <point x="460" y="332"/>
      <point x="453" y="218"/>
      <point x="444" y="157" type="curve"/>
      <point x="423" y="137"/>
      <point x="397" y="124"/>
      <point x="363" y="124" type="curve" smooth="yes"/>
      <point x="261" y="124"/>
      <point x="217" y="180"/>
      <point x="217" y="277" type="curve" smooth="yes"/>
      <point x="217" y="335"/>
      <point x="231" y="406"/>
      <point x="257" y="471" type="curve"/>
      <point x="315" y="448"/>
      <point x="369" y="438"/>
      <point x="415" y="438" type="curve" smooth="yes"/>
      <point x="559" y="438"/>
      <point x="640" y="517"/>
      <point x="640" y="619" type="curve" smooth="yes"/>
      <point x="640" y="719"/>
      <point x="572" y="756"/>
      <point x="465" y="756" type="curve" smooth="yes"/>
      <point x="350" y="756"/>
      <point x="255" y="696"/>
      <point x="186" y="608" type="curve"/>
      <point x="155" y="632"/>
      <point x="129" y="671"/>
      <point x="106" y="671" type="curve" smooth="yes"/>
      <point x="96" y="671"/>
      <point x="86" y="662"/>
      <point x="86" y="649" type="curve" smooth="yes"/>
      <point x="86" y="621"/>
      <point x="108" y="576"/>
      <point x="140" y="539" type="curve"/>
      <point x="88" y="447"/>
      <point x="60" y="339"/>
      <point x="60" y="239" type="curve" smooth="yes"/>
      <point x="60" y="67"/>
      <point x="183" y="12"/>
      <point x="323" y="12" type="curve" smooth="yes"/>
      <point x="366" y="12"/>
      <point x="398" y="24"/>
      <point x="422" y="42" type="curve"/>
      <point x="419" y="28"/>
      <point x="415" y="13"/>
      <point x="410" y="-1" type="curve"/>
      <point x="251" y="-38"/>
      <point x="74" y="-53"/>
      <point x="74" y="-137" type="curve" smooth="yes"/>
      <point x="74" y="-230"/>
      <point x="171" y="-274"/>
      <point x="257" y="-274" type="curve" smooth="yes"/>
      <point x="388" y="-274"/>
      <point x="466" y="-207"/>
      <point x="495" y="-120" type="curve" smooth="yes"/>
      <point x="501" y="-100"/>
      <point x="508" y="-77"/>
      <point x="518" y="-52" type="curve"/>
      <point x="662" y="6"/>
      <point x="752" y="119"/>
      <point x="752" y="198" type="curve" smooth="yes"/>
      <point x="752" y="221"/>
      <point x="748" y="233"/>
      <point x="738" y="233" type="curve" smooth="yes"/>
      <point x="715" y="233"/>
      <point x="668" y="143"/>
      <point x="555" y="61" type="curve"/>
      <point x="575" y="128"/>
      <point x="591" y="192"/>
      <point x="591" y="233" type="curve" smooth="yes"/>
      <point x="591" y="257"/>
      <point x="554" y="332"/>
    </contour>
    <contour>
      <point x="458" y="657" type="curve" smooth="yes"/>
      <point x="501" y="657"/>
      <point x="529" y="636"/>
      <point x="529" y="604" type="curve" smooth="yes"/>
      <point x="529" y="555"/>
      <point x="487" y="515"/>
      <point x="423" y="515" type="curve" smooth="yes"/>
      <point x="385" y="515"/>
      <point x="333" y="520"/>
      <point x="290" y="539" type="curve"/>
      <point x="331" y="607"/>
      <point x="387" y="657"/>
    </contour>
    <contour>
      <point x="256" y="-197" type="curve" smooth="yes"/>
      <point x="224" y="-197"/>
      <point x="176" y="-188"/>
      <point x="176" y="-159" type="curve" smooth="yes"/>
      <point x="176" y="-132"/>
      <point x="228" y="-133"/>
      <point x="375" y="-95" type="curve"/>
      <point x="346" y="-153"/>
      <point x="306" y="-197"/>
    </contour>
  </outline>
</glyph>
<glyph name="H" format="1">
  <advance width="716"/>
  <unicode hex="0048"/>
  <outline>
    <contour>
      <point x="614" y="679" type="curve" smooth="yes"/>
      <point x="582" y="627"/>
      <point x="548" y="523"/>
      <point x="522" y="415" type="curve"/>
      <point x="462" y="416"/>
      <point x="389" y="417"/>
      <point x="326" y="417" type="curve"/>
      <point x="348" y="493"/>
      <point x="369" y="561"/>
      <point x="376" y="611" type="curve"/>
      <point x="390" y="626"/>
      <point x="400" y="662"/>
      <point x="400" y="683" type="curve" smooth="yes"/>
      <point x="400" y="710"/>
      <point x="377" y="719"/>
      <point x="368" y="719" type="curve" smooth="yes"/>
      <point x="366" y="719" type="line" smooth="yes"/>
      <point x="226" y="718"/>
      <point x="15" y="685"/>
      <point x="15" y="577" type="curve" smooth="yes"/>
      <point x="15" y="551"/>
      <point x="26" y="533"/>
      <point x="38" y="533" type="curve" smooth="yes"/>
      <point x="41" y="533"/>
      <point x="45" y="534"/>
      <point x="48" y="537" type="curve" smooth="yes"/>
      <point x="91" y="575"/>
      <point x="125" y="603"/>
      <point x="239" y="606" type="curve"/>
      <point x="214" y="550"/>
      <point x="188" y="474"/>
      <point x="165" y="396" type="curve"/>
      <point x="81" y="373"/>
      <point x="37" y="330"/>
      <point x="37" y="301" type="curve" smooth="yes"/>
      <point x="37" y="295"/>
      <point x="42" y="291"/>
      <point x="50" y="291" type="curve" smooth="yes"/>
      <point x="74" y="291"/>
      <point x="103" y="295"/>
      <point x="139" y="300" type="curve"/>
      <point x="118" y="212"/>
      <point x="103" y="130"/>
      <point x="103" y="82" type="curve" smooth="yes"/>
      <point x="103" y="21"/>
      <point x="104" y="-15"/>
      <point x="137" y="-15" type="curve" smooth="yes"/>
      <point x="193" y="-15"/>
      <point x="252" y="-5"/>
      <point x="252" y="44" type="curve" smooth="yes"/>
      <point x="252" y="130"/>
      <point x="273" y="225"/>
      <point x="297" y="316" type="curve"/>
      <point x="312" y="317"/>
      <point x="326" y="317"/>
      <point x="342" y="317" type="curve" smooth="yes"/>
      <point x="367" y="317"/>
      <point x="440" y="314"/>
      <point x="499" y="312" type="curve"/>
      <point x="483" y="227"/>
      <point x="473" y="149"/>
      <point x="473" y="102" type="curve" smooth="yes"/>
      <point x="473" y="25"/>
      <point x="498" y="-5"/>
      <point x="582" y="-5" type="curve" smooth="yes"/>
      <point x="600" y="-5"/>
      <point x="622" y="1"/>
      <point x="622" y="23" type="curve" smooth="yes"/>
      <point x="622" y="252"/>
      <point x="711" y="599"/>
      <point x="711" y="695" type="curve" smooth="yes"/>
      <point x="711" y="722"/>
      <point x="707" y="749"/>
      <point x="698" y="749" type="curve" smooth="yes"/>
      <point x="669" y="749"/>
      <point x="627" y="699"/>
    </contour>
  </outline>
</glyph>
<glyph name="I" format="1">
  <advance width="328"/>
  <unicode hex="0049"/>
  <outline>
    <contour>
      <point x="294" y="750" type="move" name="topUC"/>
    </contour>
    <contour>
      <point x="206" y="684" type="curve" smooth="yes"/>
      <point x="153" y="567"/>
      <point x="65" y="228"/>
      <point x="65" y="102" type="curve" smooth="yes"/>
      <point x="65" y="25"/>
      <point x="90" y="-5"/>
      <point x="174" y="-5" type="curve" smooth="yes"/>
      <point x="192" y="-5"/>
      <point x="214" y="1"/>
      <point x="214" y="23" type="curve" smooth="yes"/>
      <point x="214" y="252"/>
      <point x="323" y="604"/>
      <point x="323" y="700" type="curve" smooth="yes"/>
      <point x="323" y="727"/>
      <point x="308" y="754"/>
      <point x="290" y="754" type="curve" smooth="yes"/>
      <point x="246" y="754"/>
      <point x="221" y="717"/>
    </contour>
  </outline>
</glyph>
<glyph name="J" format="1">
  <advance width="470"/>
  <unicode hex="004A"/>
  <outline>
    <contour>
      <point x="241" y="729" type="curve" smooth="yes"/>
      <point x="90" y="729"/>
      <point x="-31" y="651"/>
      <point x="-31" y="615" type="curve" smooth="yes"/>
      <point x="-31" y="602"/>
      <point x="-21" y="593"/>
      <point x="-1" y="593" type="curve" smooth="yes"/>
      <point x="34" y="593"/>
      <point x="133" y="632"/>
      <point x="222" y="632" type="curve" smooth="yes"/>
      <point x="249" y="632"/>
      <point x="278" y="626"/>
      <point x="308" y="607" type="curve"/>
      <point x="264" y="495"/>
      <point x="209" y="301"/>
      <point x="191" y="173" type="curve"/>
      <point x="185" y="144"/>
      <point x="180" y="101"/>
      <point x="172" y="55" type="curve"/>
      <point x="20" y="1"/>
      <point x="-140" y="-55"/>
      <point x="-140" y="-127" type="curve" smooth="yes"/>
      <point x="-140" y="-231"/>
      <point x="-43" y="-274"/>
      <point x="59" y="-274" type="curve" smooth="yes"/>
      <point x="205" y="-274"/>
      <point x="269" y="-162"/>
      <point x="304" y="-67" type="curve"/>
      <point x="316" y="-41"/>
      <point x="327" y="-11"/>
      <point x="334" y="22" type="curve"/>
      <point x="452" y="72"/>
      <point x="555" y="130"/>
      <point x="555" y="195" type="curve" smooth="yes"/>
      <point x="555" y="218"/>
      <point x="551" y="233"/>
      <point x="541" y="233" type="curve" smooth="yes"/>
      <point x="533" y="233"/>
      <point x="517" y="224"/>
      <point x="500" y="204" type="curve" smooth="yes"/>
      <point x="477" y="178"/>
      <point x="419" y="149"/>
      <point x="354" y="123" type="curve"/>
      <point x="396" y="329"/>
      <point x="443" y="562"/>
      <point x="443" y="645" type="curve" smooth="yes"/>
      <point x="443" y="723"/>
      <point x="291" y="729"/>
    </contour>
    <contour>
      <point x="58" y="-197" type="curve" smooth="yes"/>
      <point x="12" y="-197"/>
      <point x="-38" y="-173"/>
      <point x="-38" y="-139" type="curve" smooth="yes"/>
      <point x="-38" y="-105"/>
      <point x="14" y="-95"/>
      <point x="153" y="-46" type="curve"/>
      <point x="134" y="-128"/>
      <point x="105" y="-197"/>
    </contour>
  </outline>
</glyph>
<glyph name="N" format="1">
  <advance width="691"/>
  <unicode hex="004E"/>
  <outline>
    <contour>
      <point x="499" y="750" type="move" name="topUC"/>
    </contour>
    <contour>
      <point x="541" y="-3" type="curve" smooth="yes"/>
      <point x="646" y="-3"/>
      <point x="771" y="111"/>
      <point x="771" y="198" type="curve" smooth="yes"/>
      <point x="771" y="221"/>
      <point x="763" y="236"/>
      <point x="753" y="236" type="curve" smooth="yes"/>
      <point x="745" y="236"/>
      <point x="733" y="227"/>
      <point x="717" y="207" type="curve" smooth="yes"/>
      <point x="685" y="165"/>
      <point x="625" y="112"/>
      <point x="601" y="112" type="curve" smooth="yes"/>
      <point x="584" y="112"/>
      <point x="578" y="132"/>
      <point x="578" y="164" type="curve" smooth="yes"/>
      <point x="578" y="244"/>
      <point x="685" y="405"/>
      <point x="685" y="561" type="curve" smooth="yes"/>
      <point x="685" y="665"/>
      <point x="637" y="752"/>
      <point x="499" y="752" type="curve" smooth="yes"/>
      <point x="405" y="752"/>
      <point x="333" y="683"/>
      <point x="283" y="586" type="curve"/>
      <point x="283" y="593" type="line" smooth="yes"/>
      <point x="283" y="678"/>
      <point x="270" y="750"/>
      <point x="170" y="750" type="curve" smooth="yes"/>
      <point x="79" y="750"/>
      <point x="0" y="698"/>
      <point x="0" y="625" type="curve" smooth="yes"/>
      <point x="0" y="604"/>
      <point x="6" y="597"/>
      <point x="16" y="597" type="curve" smooth="yes"/>
      <point x="55" y="597"/>
      <point x="78" y="647"/>
      <point x="115" y="647" type="curve" smooth="yes"/>
      <point x="146" y="647"/>
      <point x="156" y="608"/>
      <point x="156" y="566" type="curve" smooth="yes"/>
      <point x="156" y="527"/>
      <point x="84" y="221"/>
      <point x="84" y="82" type="curve" smooth="yes"/>
      <point x="84" y="21"/>
      <point x="101" y="-15"/>
      <point x="134" y="-15" type="curve" smooth="yes"/>
      <point x="160" y="-15"/>
      <point x="183" y="-2"/>
      <point x="208" y="10" type="curve" smooth="yes"/>
      <point x="239" y="25"/>
      <point x="249" y="52"/>
      <point x="249" y="84" type="curve" smooth="yes"/>
      <point x="249" y="122"/>
      <point x="239" y="163"/>
      <point x="230" y="208" type="curve"/>
      <point x="252" y="335"/>
      <point x="347" y="616"/>
      <point x="480" y="616" type="curve" smooth="yes"/>
      <point x="520" y="616"/>
      <point x="541" y="581"/>
      <point x="541" y="526" type="curve" smooth="yes"/>
      <point x="541" y="434"/>
      <point x="437" y="229"/>
      <point x="437" y="103" type="curve" smooth="yes"/>
      <point x="437" y="40"/>
      <point x="463" y="-3"/>
    </contour>
  </outline>
</glyph>
<glyph name="O" format="1">
  <advance width="849"/>
  <unicode hex="004F"/>
  <outline>
    <contour>
      <point x="504" y="750" type="move" name="topUC"/>
    </contour>
    <contour>
      <point x="476" y="753" type="curve" smooth="yes"/>
      <point x="226" y="753"/>
      <point x="70" y="533"/>
      <point x="70" y="299" type="curve" smooth="yes"/>
      <point x="70" y="142"/>
      <point x="165" y="-8"/>
      <point x="391" y="-8" type="curve" smooth="yes"/>
      <point x="597" y="-8"/>
      <point x="728" y="117"/>
      <point x="768" y="308" type="curve"/>
      <point x="820" y="325"/>
      <point x="854" y="360"/>
      <point x="854" y="407" type="curve" smooth="yes"/>
      <point x="854" y="416"/>
      <point x="848" y="424"/>
      <point x="840" y="424" type="curve" smooth="yes"/>
      <point x="817" y="424"/>
      <point x="804" y="408"/>
      <point x="780" y="398" type="curve"/>
      <point x="781" y="413"/>
      <point x="782" y="429"/>
      <point x="782" y="445" type="curve" smooth="yes"/>
      <point x="782" y="536"/>
      <point x="741" y="612"/>
      <point x="649" y="612" type="curve" smooth="yes"/>
      <point x="570" y="612"/>
      <point x="516" y="550"/>
      <point x="516" y="476" type="curve" smooth="yes"/>
      <point x="516" y="377"/>
      <point x="570" y="313"/>
      <point x="667" y="301" type="curve"/>
      <point x="627" y="198"/>
      <point x="541" y="125"/>
      <point x="401" y="125" type="curve" smooth="yes"/>
      <point x="292" y="125"/>
      <point x="227" y="205"/>
      <point x="227" y="337" type="curve" smooth="yes"/>
      <point x="227" y="484"/>
      <point x="316" y="657"/>
      <point x="468" y="657" type="curve" smooth="yes"/>
      <point x="576" y="657"/>
      <point x="637" y="639"/>
      <point x="667" y="639" type="curve" smooth="yes"/>
      <point x="684" y="639"/>
      <point x="697" y="641"/>
      <point x="697" y="650" type="curve" smooth="yes"/>
      <point x="697" y="695"/>
      <point x="611" y="753"/>
    </contour>
    <contour>
      <point x="644" y="485" type="curve" smooth="yes"/>
      <point x="644" y="506"/>
      <point x="651" y="524"/>
      <point x="665" y="524" type="curve" smooth="yes"/>
      <point x="692" y="524"/>
      <point x="695" y="482"/>
      <point x="695" y="459" type="curve" smooth="yes"/>
      <point x="695" y="440"/>
      <point x="694" y="421"/>
      <point x="692" y="403" type="curve"/>
      <point x="664" y="419"/>
      <point x="644" y="448"/>
    </contour>
  </outline>
</glyph>
<glyph name="V" format="1">
  <advance width="658"/>
  <unicode hex="0056"/>
  <outline>
    <contour>
      <point x="636" y="590" type="curve" smooth="yes"/>
      <point x="636" y="692"/>
      <point x="595" y="757"/>
      <point x="503" y="757" type="curve" smooth="yes"/>
      <point x="424" y="757"/>
      <point x="370" y="695"/>
      <point x="370" y="621" type="curve" smooth="yes"/>
      <point x="370" y="516"/>
      <point x="430" y="451"/>
      <point x="538" y="444" type="curve"/>
      <point x="514" y="279"/>
      <point x="446" y="124"/>
      <point x="297" y="124" type="curve" smooth="yes"/>
      <point x="243" y="124"/>
      <point x="227" y="159"/>
      <point x="227" y="191" type="curve" smooth="yes"/>
      <point x="227" y="337"/>
      <point x="296" y="473"/>
      <point x="296" y="596" type="curve" smooth="yes"/>
      <point x="296" y="654"/>
      <point x="270" y="750"/>
      <point x="170" y="750" type="curve" smooth="yes"/>
      <point x="79" y="750"/>
      <point x="0" y="698"/>
      <point x="0" y="625" type="curve" smooth="yes"/>
      <point x="0" y="604"/>
      <point x="6" y="597"/>
      <point x="16" y="597" type="curve" smooth="yes"/>
      <point x="55" y="597"/>
      <point x="78" y="647"/>
      <point x="115" y="647" type="curve" smooth="yes"/>
      <point x="146" y="647"/>
      <point x="156" y="608"/>
      <point x="156" y="566" type="curve" smooth="yes"/>
      <point x="156" y="480"/>
      <point x="75" y="235"/>
      <point x="75" y="182" type="curve" smooth="yes"/>
      <point x="75" y="54"/>
      <point x="151" y="-3"/>
      <point x="269" y="-3" type="curve" smooth="yes"/>
      <point x="552" y="-3"/>
      <point x="617" y="243"/>
      <point x="632" y="457" type="curve"/>
      <point x="678" y="474"/>
      <point x="708" y="508"/>
      <point x="708" y="552" type="curve" smooth="yes"/>
      <point x="708" y="561"/>
      <point x="702" y="569"/>
      <point x="694" y="569" type="curve" smooth="yes"/>
      <point x="671" y="569"/>
      <point x="658" y="554"/>
      <point x="635" y="544" type="curve"/>
      <point x="636" y="559"/>
      <point x="636" y="575"/>
    </contour>
    <contour>
      <point x="549" y="604" type="curve" smooth="yes"/>
      <point x="549" y="585"/>
      <point x="548" y="566"/>
      <point x="547" y="547" type="curve"/>
      <point x="518" y="563"/>
      <point x="498" y="593"/>
      <point x="498" y="630" type="curve" smooth="yes"/>
      <point x="498" y="651"/>
      <point x="505" y="669"/>
      <point x="519" y="669" type="curve" smooth="yes"/>
      <point x="546" y="669"/>
      <point x="549" y="627"/>
    </contour>
  </outline>
</glyph>
<glyph name="bracketright" format="1">
  <advance width="335"/>
  <unicode hex="005D"/>
  <outline>
    <contour>
      <point x="50" y="839" type="line"/>
      <point x="50" y="781" type="line"/>
      <point x="227" y="781" type="line"/>
      <point x="227" y="-162" type="line"/>
      <point x="50" y="-162" type="line"/>
      <point x="50" y="-220" type="line"/>
      <point x="295" y="-220" type="line"/>
      <point x="295" y="839" type="line"/>
    </contour>
  </outline>
</glyph>
<glyph name="grave" format="1">
  <advance width="500"/>
  <unicode hex="0060"/>
  <outline>
    <contour>
      <point x="362" y="475" type="move" name="_top"/>
    </contour>
    <contour>
      <point x="338" y="555" type="curve" smooth="yes"/>
      <point x="349" y="555"/>
      <point x="358" y="557"/>
      <point x="358" y="562" type="curve" smooth="yes"/>
      <point x="358" y="573"/>
      <point x="352" y="578"/>
      <point x="346" y="582" type="curve" smooth="yes"/>
      <point x="288" y="621"/>
      <point x="259" y="676"/>
      <point x="253" y="751" type="curve" smooth="yes"/>
      <point x="250" y="780"/>
      <point x="212" y="787"/>
      <point x="187" y="787" type="curve" smooth="yes"/>
      <point x="147" y="787"/>
      <point x="142" y="770"/>
      <point x="142" y="738" type="curve" smooth="yes"/>
      <point x="142" y="614"/>
      <point x="244" y="555"/>
    </contour>
  </outline>
</glyph>
<glyph name="a" format="1">
  <advance width="582"/>
  <unicode hex="0061"/>
  <outline>
    <contour>
      <point x="316" y="475" type="move" name="top"/>
    </contour>
    <contour>
      <point x="360" y="472" type="curve" smooth="yes"/>
      <point x="339" y="476"/>
      <point x="319" y="478"/>
      <point x="300" y="478" type="curve" smooth="yes"/>
      <point x="217" y="478"/>
      <point x="145" y="426"/>
      <point x="99" y="371" type="curve" smooth="yes"/>
      <point x="48" y="309"/>
      <point x="25" y="226"/>
      <point x="25" y="150" type="curve" smooth="yes"/>
      <point x="25" y="54"/>
      <point x="89" y="-8"/>
      <point x="182" y="-8" type="curve" smooth="yes"/>
      <point x="274" y="-8"/>
      <point x="326" y="33"/>
      <point x="361" y="90" type="curve"/>
      <point x="372" y="35"/>
      <point x="394" y="-3"/>
      <point x="432" y="-3" type="curve" smooth="yes"/>
      <point x="537" y="-3"/>
      <point x="662" y="111"/>
      <point x="662" y="198" type="curve" smooth="yes"/>
      <point x="662" y="221"/>
      <point x="654" y="236"/>
      <point x="644" y="236" type="curve" smooth="yes"/>
      <point x="626" y="236"/>
      <point x="533" y="112"/>
      <point x="492" y="112" type="curve" smooth="yes"/>
      <point x="477" y="112"/>
      <point x="471" y="148"/>
      <point x="471" y="194" type="curve" smooth="yes"/>
      <point x="471" y="245"/>
      <point x="472" y="286"/>
      <point x="479" y="324" type="curve"/>
      <point x="494" y="349"/>
      <point x="507" y="373"/>
      <point x="520" y="403" type="curve"/>
      <point x="520" y="436"/>
      <point x="465" y="491"/>
      <point x="424" y="491" type="curve" smooth="yes"/>
      <point x="410" y="491"/>
      <point x="399" y="480"/>
      <point x="390" y="462" type="curve"/>
      <point x="383" y="466"/>
      <point x="373" y="469"/>
    </contour>
    <contour>
      <point x="229" y="99" type="curve" smooth="yes"/>
      <point x="184" y="99"/>
      <point x="172" y="137"/>
      <point x="172" y="176" type="curve" smooth="yes"/>
      <point x="172" y="311"/>
      <point x="276" y="392"/>
      <point x="373" y="410" type="curve"/>
      <point x="358" y="346"/>
      <point x="354" y="259"/>
      <point x="353" y="218" type="curve"/>
      <point x="329" y="133"/>
      <point x="275" y="99"/>
    </contour>
  </outline>
</glyph>
<glyph name="b" format="1">
  <advance width="517"/>
  <unicode hex="0062"/>
  <outline>
    <contour>
      <point x="487" y="69" type="curve" smooth="yes"/>
      <point x="565" y="69"/>
      <point x="602" y="157"/>
      <point x="602" y="186" type="curve" smooth="yes"/>
      <point x="602" y="207"/>
      <point x="587" y="234"/>
      <point x="572" y="234" type="curve" smooth="yes"/>
      <point x="552" y="234"/>
      <point x="524" y="148"/>
      <point x="480" y="148" type="curve" smooth="yes"/>
      <point x="405" y="148"/>
      <point x="443" y="364"/>
      <point x="343" y="364" type="curve" smooth="yes"/>
      <point x="312" y="364"/>
      <point x="275" y="305"/>
      <point x="264" y="266" type="curve"/>
      <point x="288" y="239"/>
      <point x="321" y="211"/>
      <point x="321" y="165" type="curve" smooth="yes"/>
      <point x="321" y="125"/>
      <point x="308" y="81"/>
      <point x="262" y="81" type="curve" smooth="yes"/>
      <point x="232" y="81"/>
      <point x="192" y="99"/>
      <point x="192" y="201" type="curve" smooth="yes"/>
      <point x="192" y="296"/>
      <point x="211" y="381"/>
      <point x="239" y="450" type="curve"/>
      <point x="392" y="460"/>
      <point x="539" y="505"/>
      <point x="539" y="628" type="curve" smooth="yes"/>
      <point x="539" y="694"/>
      <point x="489" y="745"/>
      <point x="397" y="745" type="curve" smooth="yes"/>
      <point x="303" y="745"/>
      <point x="209" y="651"/>
      <point x="141" y="525" type="curve"/>
      <point x="109" y="532"/>
      <point x="77" y="547"/>
      <point x="53" y="547" type="curve" smooth="yes"/>
      <point x="44" y="547"/>
      <point x="40" y="538"/>
      <point x="40" y="529" type="curve" smooth="yes"/>
      <point x="40" y="512"/>
      <point x="72" y="488"/>
      <point x="114" y="470" type="curve"/>
      <point x="71" y="376"/>
      <point x="45" y="270"/>
      <point x="45" y="176" type="curve" smooth="yes"/>
      <point x="45" y="33"/>
      <point x="152" y="-9"/>
      <point x="244" y="-9" type="curve" smooth="yes"/>
      <point x="338" y="-9"/>
      <point x="391" y="34"/>
      <point x="414" y="89" type="curve"/>
      <point x="430" y="77"/>
      <point x="453" y="69"/>
    </contour>
    <contour>
      <point x="405" y="647" type="curve" smooth="yes"/>
      <point x="421" y="647"/>
      <point x="429" y="631"/>
      <point x="429" y="612" type="curve" smooth="yes"/>
      <point x="429" y="555"/>
      <point x="345" y="521"/>
      <point x="265" y="507" type="curve"/>
      <point x="312" y="595"/>
      <point x="371" y="647"/>
    </contour>
  </outline>
</glyph>
<glyph name="d" format="1">
  <advance width="582"/>
  <unicode hex="0064"/>
  <outline>
    <contour>
      <point x="360" y="472" type="line" smooth="yes"/>
      <point x="340" y="477"/>
      <point x="318" y="478"/>
      <point x="300" y="478" type="curve" smooth="yes"/>
      <point x="217" y="478"/>
      <point x="145" y="426"/>
      <point x="99" y="371" type="curve" smooth="yes"/>
      <point x="48" y="309"/>
      <point x="25" y="226"/>
      <point x="25" y="150" type="curve" smooth="yes"/>
      <point x="25" y="54"/>
      <point x="89" y="-8"/>
      <point x="182" y="-8" type="curve" smooth="yes"/>
      <point x="273" y="-8"/>
      <point x="325" y="32"/>
      <point x="360" y="87" type="curve"/>
      <point x="371" y="32"/>
      <point x="394" y="-3"/>
      <point x="432" y="-3" type="curve" smooth="yes"/>
      <point x="537" y="-3"/>
      <point x="662" y="111"/>
      <point x="662" y="198" type="curve" smooth="yes"/>
      <point x="662" y="221"/>
      <point x="654" y="236"/>
      <point x="644" y="236" type="curve" smooth="yes"/>
      <point x="626" y="236"/>
      <point x="533" y="112"/>
      <point x="492" y="112" type="curve" smooth="yes"/>
      <point x="476" y="112"/>
      <point x="469" y="139"/>
      <point x="469" y="181" type="curve" smooth="yes"/>
      <point x="469" y="242"/>
      <point x="491" y="394"/>
      <point x="516" y="484" type="curve"/>
      <point x="552" y="536"/>
      <point x="588" y="577"/>
      <point x="590" y="650" type="curve" smooth="yes"/>
      <point x="590" y="673"/>
      <point x="557" y="746"/>
      <point x="515" y="746" type="curve" smooth="yes"/>
      <point x="465" y="746"/>
      <point x="415" y="622"/>
      <point x="383" y="466" type="curve"/>
    </contour>
    <contour>
      <point x="351" y="212" type="curve"/>
      <point x="326" y="131"/>
      <point x="274" y="99"/>
      <point x="229" y="99" type="curve" smooth="yes"/>
      <point x="184" y="99"/>
      <point x="172" y="137"/>
      <point x="172" y="176" type="curve" smooth="yes"/>
      <point x="172" y="310"/>
      <point x="275" y="392"/>
      <point x="372" y="410" type="curve"/>
      <point x="360" y="343"/>
      <point x="352" y="274"/>
    </contour>
  </outline>
</glyph>
<glyph name="e" format="1">
  <advance width="418"/>
  <unicode hex="0065"/>
  <outline>
    <contour>
      <point x="271" y="475" type="move" name="top"/>
    </contour>
    <contour>
      <point x="263" y="109" type="curve" smooth="yes"/>
      <point x="226" y="109"/>
      <point x="167" y="121"/>
      <point x="167" y="176" type="curve" smooth="yes"/>
      <point x="167" y="201" type="line"/>
      <point x="273" y="250"/>
      <point x="401" y="266"/>
      <point x="401" y="384" type="curve" smooth="yes"/>
      <point x="401" y="440"/>
      <point x="360" y="480"/>
      <point x="285" y="480" type="curve" smooth="yes"/>
      <point x="146" y="480"/>
      <point x="20" y="341"/>
      <point x="20" y="150" type="curve" smooth="yes"/>
      <point x="20" y="41"/>
      <point x="107" y="-6"/>
      <point x="197" y="-6" type="curve" smooth="yes"/>
      <point x="426" y="-6"/>
      <point x="498" y="142"/>
      <point x="498" y="198" type="curve" smooth="yes"/>
      <point x="498" y="221"/>
      <point x="494" y="233"/>
      <point x="484" y="233" type="curve" smooth="yes"/>
      <point x="461" y="233"/>
      <point x="395" y="109"/>
    </contour>
    <contour>
      <point x="246" y="391" type="curve" smooth="yes"/>
      <point x="267" y="391"/>
      <point x="277" y="381"/>
      <point x="277" y="366" type="curve" smooth="yes"/>
      <point x="277" y="325"/>
      <point x="230" y="307"/>
      <point x="174" y="270" type="curve"/>
      <point x="184" y="333"/>
      <point x="206" y="391"/>
    </contour>
  </outline>
</glyph>
<glyph name="f" format="1">
  <advance width="417"/>
  <unicode hex="0066"/>
  <outline>
    <contour>
      <point x="300" y="279" type="curve"/>
      <point x="264" y="279"/>
      <point x="228" y="275"/>
      <point x="200" y="264" type="curve"/>
      <point x="212" y="327"/>
      <point x="228" y="381"/>
      <point x="245" y="428" type="curve"/>
      <point x="390" y="435"/>
      <point x="517" y="510"/>
      <point x="517" y="628" type="curve" smooth="yes"/>
      <point x="517" y="694"/>
      <point x="497" y="745"/>
      <point x="405" y="745" type="curve" smooth="yes"/>
      <point x="304" y="745"/>
      <point x="216" y="648"/>
      <point x="148" y="505" type="curve"/>
      <point x="116" y="511"/>
      <point x="88" y="527"/>
      <point x="62" y="527" type="curve" smooth="yes"/>
      <point x="53" y="527"/>
      <point x="49" y="518"/>
      <point x="49" y="509" type="curve" smooth="yes"/>
      <point x="49" y="492"/>
      <point x="82" y="468"/>
      <point x="124" y="450" type="curve"/>
      <point x="49" y="267"/>
      <point x="5" y="28"/>
      <point x="5" y="-181" type="curve" smooth="yes"/>
      <point x="5" y="-231"/>
      <point x="34" y="-274"/>
      <point x="106" y="-274" type="curve" smooth="yes"/>
      <point x="186" y="-274"/>
      <point x="259" y="-246"/>
      <point x="259" y="-144" type="curve" smooth="yes"/>
      <point x="259" y="-87"/>
      <point x="237" y="122"/>
      <point x="237" y="122" type="curve"/>
      <point x="237" y="122"/>
      <point x="270" y="71"/>
      <point x="375" y="71" type="curve" smooth="yes"/>
      <point x="462" y="71"/>
      <point x="497" y="132"/>
      <point x="497" y="208" type="curve" smooth="yes"/>
      <point x="497" y="222"/>
      <point x="493" y="240"/>
      <point x="480" y="240" type="curve" smooth="yes"/>
      <point x="460" y="240"/>
      <point x="435" y="162"/>
      <point x="374" y="162" type="curve" smooth="yes"/>
      <point x="339" y="162"/>
      <point x="311" y="195"/>
    </contour>
    <contour>
      <point x="181" y="-130" type="curve" smooth="yes"/>
      <point x="181" y="-170"/>
      <point x="165" y="-197"/>
      <point x="149" y="-197" type="curve" smooth="yes"/>
      <point x="134" y="-197"/>
      <point x="126" y="-184"/>
      <point x="126" y="-159" type="curve" smooth="yes"/>
      <point x="126" y="-143"/>
      <point x="136" y="-38"/>
      <point x="162" y="73" type="curve"/>
      <point x="174" y="-4"/>
      <point x="181" y="-98"/>
    </contour>
    <contour>
      <point x="396" y="647" type="curve" smooth="yes"/>
      <point x="408" y="647"/>
      <point x="414" y="638"/>
      <point x="414" y="621" type="curve" smooth="yes"/>
      <point x="414" y="554"/>
      <point x="343" y="524"/>
      <point x="271" y="493" type="curve"/>
      <point x="319" y="596"/>
      <point x="370" y="647"/>
    </contour>
  </outline>
</glyph>
<glyph name="j" format="1">
  <advance width="280"/>
  <unicode hex="006A"/>
  <outline>
    <contour>
      <point x="165" y="499" type="curve" smooth="yes"/>
      <point x="152" y="499"/>
      <point x="135" y="493"/>
      <point x="126" y="471" type="curve" smooth="yes"/>
      <point x="115" y="443"/>
      <point x="65" y="282"/>
      <point x="42" y="188" type="curve" smooth="yes"/>
      <point x="33" y="153"/>
      <point x="24" y="83"/>
      <point x="10" y="12" type="curve"/>
      <point x="-131" y="-34"/>
      <point x="-250" y="-58"/>
      <point x="-250" y="-141" type="curve" smooth="yes"/>
      <point x="-250" y="-216"/>
      <point x="-177" y="-274"/>
      <point x="-91" y="-274" type="curve" smooth="yes"/>
      <point x="36" y="-274"/>
      <point x="73" y="-207"/>
      <point x="103" y="-120" type="curve"/>
      <point x="129" y="-39" type="line"/>
      <point x="262" y="21"/>
      <point x="360" y="123"/>
      <point x="360" y="198" type="curve" smooth="yes"/>
      <point x="360" y="221"/>
      <point x="356" y="233"/>
      <point x="346" y="233" type="curve" smooth="yes"/>
      <point x="328" y="233"/>
      <point x="278" y="154"/>
      <point x="167" y="83" type="curve"/>
      <point x="204" y="209"/>
      <point x="242" y="352"/>
      <point x="242" y="400" type="curve" smooth="yes"/>
      <point x="242" y="424"/>
      <point x="205" y="499"/>
    </contour>
    <contour>
      <point x="194" y="573" type="curve"/>
      <point x="270" y="573"/>
      <point x="341" y="669"/>
      <point x="343" y="745" type="curve"/>
      <point x="329" y="775"/>
      <point x="304" y="792"/>
      <point x="259" y="792" type="curve" smooth="yes"/>
      <point x="196" y="792"/>
      <point x="168" y="722"/>
      <point x="168" y="668" type="curve" smooth="yes"/>
      <point x="168" y="631"/>
      <point x="177" y="600"/>
    </contour>
    <contour>
      <point x="-92" y="-197" type="curve" smooth="yes"/>
      <point x="-117" y="-197"/>
      <point x="-158" y="-182"/>
      <point x="-158" y="-153" type="curve" smooth="yes"/>
      <point x="-158" y="-136"/>
      <point x="-111" y="-129"/>
      <point x="-16" y="-94" type="curve"/>
      <point x="-34" y="-153"/>
      <point x="-58" y="-197"/>
    </contour>
  </outline>
</glyph>
<glyph name="k" format="1">
  <advance width="510"/>
  <unicode hex="006B"/>
  <outline>
    <contour>
      <point x="197" y="221" type="curve"/>
      <point x="239" y="113"/>
      <point x="290" y="-3"/>
      <point x="379" y="-3" type="curve" smooth="yes"/>
      <point x="488" y="-3"/>
      <point x="590" y="111"/>
      <point x="590" y="198" type="curve" smooth="yes"/>
      <point x="590" y="221"/>
      <point x="586" y="233"/>
      <point x="576" y="233" type="curve" smooth="yes"/>
      <point x="544" y="233"/>
      <point x="497" y="112"/>
      <point x="413" y="112" type="curve" smooth="yes"/>
      <point x="354" y="112"/>
      <point x="333" y="177"/>
      <point x="322" y="219" type="curve"/>
      <point x="392" y="219"/>
      <point x="500" y="271"/>
      <point x="500" y="364" type="curve" smooth="yes"/>
      <point x="500" y="435"/>
      <point x="453" y="479"/>
      <point x="368" y="479" type="curve" smooth="yes"/>
      <point x="284" y="479"/>
      <point x="236" y="427"/>
      <point x="209" y="372" type="curve"/>
      <point x="219" y="456" type="line"/>
      <point x="264" y="529"/>
      <point x="315" y="577"/>
      <point x="315" y="649" type="curve" smooth="yes"/>
      <point x="315" y="672"/>
      <point x="280" y="747"/>
      <point x="239" y="747" type="curve" smooth="yes"/>
      <point x="226" y="747"/>
      <point x="212" y="740"/>
      <point x="199" y="720" type="curve" smooth="yes"/>
      <point x="101" y="571"/>
      <point x="45" y="248"/>
      <point x="45" y="82" type="curve" smooth="yes"/>
      <point x="45" y="21"/>
      <point x="59" y="-15"/>
      <point x="92" y="-15" type="curve" smooth="yes"/>
      <point x="125" y="-15"/>
      <point x="150" y="-1"/>
      <point x="175" y="19" type="curve" smooth="yes"/>
      <point x="190" y="31"/>
      <point x="190" y="59"/>
      <point x="190" y="84" type="curve" smooth="yes"/>
      <point x="190" y="124"/>
      <point x="196" y="179"/>
    </contour>
    <contour>
      <point x="321" y="372" type="curve" smooth="yes"/>
      <point x="351" y="372"/>
      <point x="360" y="357"/>
      <point x="360" y="336" type="curve" smooth="yes"/>
      <point x="360" y="288"/>
      <point x="295" y="252"/>
      <point x="206" y="246" type="curve"/>
      <point x="234" y="311"/>
      <point x="281" y="372"/>
    </contour>
  </outline>
</glyph>
<glyph name="l" format="1">
  <advance width="380"/>
  <unicode hex="006C"/>
  <outline>
    <contour>
      <point x="253" y="-3" type="curve" smooth="yes"/>
      <point x="362" y="-3"/>
      <point x="469" y="111"/>
      <point x="469" y="198" type="curve" smooth="yes"/>
      <point x="469" y="221"/>
      <point x="465" y="233"/>
      <point x="455" y="233" type="curve" smooth="yes"/>
      <point x="447" y="233"/>
      <point x="434" y="224"/>
      <point x="419" y="204" type="curve" smooth="yes"/>
      <point x="384" y="159"/>
      <point x="339" y="113"/>
      <point x="268" y="113" type="curve" smooth="yes"/>
      <point x="218" y="113"/>
      <point x="182" y="147"/>
      <point x="182" y="221" type="curve" smooth="yes"/>
      <point x="182" y="261" type="line"/>
      <point x="307" y="424"/>
      <point x="460" y="533"/>
      <point x="460" y="656" type="curve" smooth="yes"/>
      <point x="460" y="712"/>
      <point x="425" y="745"/>
      <point x="368" y="745" type="curve" smooth="yes"/>
      <point x="162" y="745"/>
      <point x="40" y="441"/>
      <point x="40" y="196" type="curve" smooth="yes"/>
      <point x="40" y="53"/>
      <point x="143" y="-3"/>
    </contour>
    <contour>
      <point x="335" y="647" type="curve" smooth="yes"/>
      <point x="347" y="647"/>
      <point x="352" y="640"/>
      <point x="352" y="625" type="curve" smooth="yes"/>
      <point x="352" y="563"/>
      <point x="285" y="524"/>
      <point x="195" y="386" type="curve"/>
      <point x="224" y="552"/>
      <point x="292" y="647"/>
    </contour>
  </outline>
</glyph>
<glyph name="m" format="1">
  <advance width="769"/>
  <unicode hex="006D"/>
  <outline>
    <contour>
      <point x="436" y="176" type="curve"/>
      <point x="436" y="178" type="line" smooth="yes"/>
      <point x="453" y="246"/>
      <point x="500" y="337"/>
      <point x="540" y="337" type="curve" smooth="yes"/>
      <point x="570" y="337"/>
      <point x="578" y="323"/>
      <point x="578" y="304" type="curve" smooth="yes"/>
      <point x="578" y="245"/>
      <point x="556" y="196"/>
      <point x="556" y="128" type="curve" smooth="yes"/>
      <point x="556" y="62"/>
      <point x="571" y="-3"/>
      <point x="628" y="-3" type="curve" smooth="yes"/>
      <point x="737" y="-3"/>
      <point x="849" y="111"/>
      <point x="849" y="198" type="curve" smooth="yes"/>
      <point x="849" y="221"/>
      <point x="845" y="233"/>
      <point x="835" y="233" type="curve" smooth="yes"/>
      <point x="816" y="233"/>
      <point x="727" y="112"/>
      <point x="688" y="112" type="curve" smooth="yes"/>
      <point x="682" y="112"/>
      <point x="680" y="117"/>
      <point x="680" y="125" type="curve" smooth="yes"/>
      <point x="680" y="158"/>
      <point x="719" y="250"/>
      <point x="719" y="340" type="curve" smooth="yes"/>
      <point x="719" y="404"/>
      <point x="681" y="444"/>
      <point x="609" y="444" type="curve" smooth="yes"/>
      <point x="542" y="444"/>
      <point x="493" y="409"/>
      <point x="460" y="368" type="curve"/>
      <point x="460" y="379" type="line" smooth="yes"/>
      <point x="460" y="438"/>
      <point x="405" y="479"/>
      <point x="349" y="479" type="curve" smooth="yes"/>
      <point x="302" y="479"/>
      <point x="264" y="453"/>
      <point x="236" y="419" type="curve"/>
      <point x="225" y="450"/>
      <point x="195" y="499"/>
      <point x="163" y="499" type="curve" smooth="yes"/>
      <point x="150" y="499"/>
      <point x="137" y="491"/>
      <point x="124" y="471" type="curve" smooth="yes"/>
      <point x="46" y="352"/>
      <point x="45" y="251"/>
      <point x="45" y="82" type="curve" smooth="yes"/>
      <point x="45" y="21"/>
      <point x="56" y="-16"/>
      <point x="89" y="-16" type="curve" smooth="yes"/>
      <point x="96" y="-16"/>
      <point x="104" y="-14"/>
      <point x="112" y="-11" type="curve" smooth="yes"/>
      <point x="179" y="15"/>
      <point x="197" y="35"/>
      <point x="197" y="60" type="curve" smooth="yes"/>
      <point x="197" y="88"/>
      <point x="176" y="122"/>
      <point x="176" y="176" type="curve" smooth="yes"/>
      <point x="176" y="241"/>
      <point x="247" y="372"/>
      <point x="289" y="372" type="curve" smooth="yes"/>
      <point x="312" y="372"/>
      <point x="320" y="360"/>
      <point x="320" y="338" type="curve" smooth="yes"/>
      <point x="320" y="296"/>
      <point x="305" y="197"/>
      <point x="305" y="82" type="curve" smooth="yes"/>
      <point x="305" y="21"/>
      <point x="316" y="-16"/>
      <point x="349" y="-16" type="curve" smooth="yes"/>
      <point x="356" y="-16"/>
      <point x="364" y="-14"/>
      <point x="372" y="-11" type="curve" smooth="yes"/>
      <point x="439" y="15"/>
      <point x="457" y="35"/>
      <point x="457" y="60" type="curve" smooth="yes"/>
      <point x="457" y="88"/>
      <point x="436" y="122"/>
    </contour>
  </outline>
</glyph>
<glyph name="n" format="1">
  <advance width="537"/>
  <unicode hex="006E"/>
  <outline>
    <contour>
      <point x="348" y="475" type="move" name="top"/>
    </contour>
    <contour>
      <point x="396" y="-3" type="curve" smooth="yes"/>
      <point x="505" y="-3"/>
      <point x="617" y="111"/>
      <point x="617" y="198" type="curve" smooth="yes"/>
      <point x="617" y="221"/>
      <point x="613" y="233"/>
      <point x="603" y="233" type="curve" smooth="yes"/>
      <point x="584" y="233"/>
      <point x="495" y="112"/>
      <point x="456" y="112" type="curve" smooth="yes"/>
      <point x="448" y="112"/>
      <point x="445" y="118"/>
      <point x="445" y="129" type="curve" smooth="yes"/>
      <point x="445" y="168"/>
      <point x="487" y="267"/>
      <point x="487" y="364" type="curve" smooth="yes"/>
      <point x="487" y="435"/>
      <point x="439" y="479"/>
      <point x="349" y="479" type="curve" smooth="yes"/>
      <point x="296" y="479"/>
      <point x="258" y="458"/>
      <point x="231" y="430" type="curve"/>
      <point x="218" y="460"/>
      <point x="191" y="499"/>
      <point x="163" y="499" type="curve" smooth="yes"/>
      <point x="150" y="499"/>
      <point x="137" y="491"/>
      <point x="124" y="471" type="curve" smooth="yes"/>
      <point x="46" y="353"/>
      <point x="45" y="252"/>
      <point x="45" y="82" type="curve" smooth="yes"/>
      <point x="45" y="21"/>
      <point x="56" y="-16"/>
      <point x="89" y="-16" type="curve" smooth="yes"/>
      <point x="96" y="-16"/>
      <point x="104" y="-14"/>
      <point x="112" y="-11" type="curve" smooth="yes"/>
      <point x="179" y="15"/>
      <point x="197" y="35"/>
      <point x="197" y="60" type="curve" smooth="yes"/>
      <point x="197" y="88"/>
      <point x="176" y="122"/>
      <point x="176" y="176" type="curve" smooth="yes"/>
      <point x="176" y="183" type="line"/>
      <point x="192" y="264"/>
      <point x="249" y="372"/>
      <point x="302" y="372" type="curve" smooth="yes"/>
      <point x="337" y="372"/>
      <point x="347" y="357"/>
      <point x="347" y="336" type="curve" smooth="yes"/>
      <point x="347" y="277"/>
      <point x="316" y="230"/>
      <point x="316" y="125" type="curve" smooth="yes"/>
      <point x="316" y="58"/>
      <point x="333" y="-3"/>
    </contour>
  </outline>
</glyph>
<glyph name="q" format="1">
  <advance width="573"/>
  <unicode hex="0071"/>
  <outline>
    <contour>
      <point x="419" y="471" type="curve"/>
      <point x="410" y="451" type="line"/>
      <point x="401" y="463"/>
      <point x="347" y="478"/>
      <point x="300" y="478" type="curve" smooth="yes"/>
      <point x="217" y="478"/>
      <point x="145" y="426"/>
      <point x="99" y="371" type="curve" smooth="yes"/>
      <point x="48" y="309"/>
      <point x="25" y="226"/>
      <point x="25" y="150" type="curve" smooth="yes"/>
      <point x="25" y="54"/>
      <point x="89" y="-8"/>
      <point x="182" y="-8" type="curve" smooth="yes"/>
      <point x="227" y="-8"/>
      <point x="262" y="1"/>
      <point x="290" y="18" type="curve"/>
      <point x="276" y="-70"/>
      <point x="272" y="-141"/>
      <point x="272" y="-181" type="curve" smooth="yes"/>
      <point x="272" y="-231"/>
      <point x="301" y="-274"/>
      <point x="373" y="-274" type="curve" smooth="yes"/>
      <point x="453" y="-274"/>
      <point x="526" y="-246"/>
      <point x="526" y="-144" type="curve" smooth="yes"/>
      <point x="526" y="-65"/>
      <point x="500" y="12"/>
      <point x="500" y="12" type="curve"/>
      <point x="587" y="43"/>
      <point x="653" y="130"/>
      <point x="653" y="198" type="curve" smooth="yes"/>
      <point x="653" y="221"/>
      <point x="649" y="233"/>
      <point x="639" y="233" type="curve" smooth="yes"/>
      <point x="631" y="233"/>
      <point x="619" y="224"/>
      <point x="603" y="204" type="curve" smooth="yes"/>
      <point x="582" y="177"/>
      <point x="530" y="111"/>
      <point x="473" y="111" type="curve" smooth="yes"/>
      <point x="460" y="111"/>
      <point x="447" y="114"/>
      <point x="447" y="114" type="curve"/>
      <point x="453" y="148" type="line" smooth="yes"/>
      <point x="471" y="250"/>
      <point x="534" y="299"/>
      <point x="535" y="400" type="curve" smooth="yes"/>
      <point x="535" y="423"/>
      <point x="498" y="499"/>
      <point x="458" y="499" type="curve" smooth="yes"/>
      <point x="445" y="499"/>
      <point x="428" y="493"/>
    </contour>
    <contour>
      <point x="229" y="99" type="curve" smooth="yes"/>
      <point x="184" y="99"/>
      <point x="172" y="137"/>
      <point x="172" y="176" type="curve" smooth="yes"/>
      <point x="172" y="318"/>
      <point x="295" y="400"/>
      <point x="395" y="412" type="curve"/>
      <point x="359" y="317"/>
      <point x="332" y="225"/>
      <point x="313" y="141" type="curve"/>
      <point x="288" y="112"/>
      <point x="257" y="99"/>
    </contour>
    <contour>
      <point x="448" y="-130" type="curve" smooth="yes"/>
      <point x="448" y="-170"/>
      <point x="432" y="-197"/>
      <point x="416" y="-197" type="curve" smooth="yes"/>
      <point x="401" y="-197"/>
      <point x="393" y="-184"/>
      <point x="393" y="-159" type="curve" smooth="yes"/>
      <point x="393" y="-111"/>
      <point x="421" y="11"/>
      <point x="421" y="11" type="curve"/>
      <point x="421" y="11"/>
      <point x="448" y="-44"/>
    </contour>
  </outline>
</glyph>
<glyph name="t" format="1">
  <advance width="317"/>
  <unicode hex="0074"/>
  <outline>
    <contour>
      <point x="46" y="474" type="curve"/>
      <point x="23" y="447"/>
      <point x="20" y="431"/>
      <point x="20" y="399" type="curve" smooth="yes"/>
      <point x="20" y="393"/>
      <point x="24" y="389"/>
      <point x="32" y="389" type="curve" smooth="yes"/>
      <point x="77" y="389" type="line"/>
      <point x="62" y="323"/>
      <point x="53" y="253"/>
      <point x="53" y="193" type="curve" smooth="yes"/>
      <point x="53" y="84"/>
      <point x="80" y="-3"/>
      <point x="146" y="-3" type="curve" smooth="yes"/>
      <point x="255" y="-3"/>
      <point x="397" y="111"/>
      <point x="397" y="198" type="curve" smooth="yes"/>
      <point x="397" y="221"/>
      <point x="393" y="233"/>
      <point x="383" y="233" type="curve" smooth="yes"/>
      <point x="375" y="233"/>
      <point x="362" y="224"/>
      <point x="347" y="204" type="curve" smooth="yes"/>
      <point x="315" y="162"/>
      <point x="230" y="112"/>
      <point x="206" y="112" type="curve" smooth="yes"/>
      <point x="190" y="112"/>
      <point x="183" y="139"/>
      <point x="183" y="181" type="curve" smooth="yes"/>
      <point x="183" y="224"/>
      <point x="191" y="317"/>
      <point x="204" y="394" type="curve"/>
      <point x="233" y="394"/>
      <point x="288" y="389"/>
      <point x="304" y="389" type="curve" smooth="yes"/>
      <point x="319" y="389"/>
      <point x="332" y="445"/>
      <point x="332" y="458" type="curve" smooth="yes"/>
      <point x="332" y="470"/>
      <point x="331" y="474"/>
      <point x="321" y="474" type="curve" smooth="yes"/>
      <point x="299" y="474"/>
      <point x="268" y="475"/>
      <point x="222" y="476" type="curve"/>
      <point x="263" y="548" type="line"/>
      <point x="253" y="590"/>
      <point x="241" y="629"/>
      <point x="198" y="629" type="curve" smooth="yes"/>
      <point x="162" y="629"/>
      <point x="128" y="565"/>
      <point x="100" y="475" type="curve"/>
      <point x="78" y="474"/>
      <point x="59" y="474"/>
    </contour>
  </outline>
</glyph>
<glyph name="braceright" format="1">
  <advance width="485"/>
  <unicode hex="007D"/>
  <outline>
    <contour>
      <point x="203" y="-313" type="curve" smooth="yes"/>
      <point x="300" y="-313"/>
      <point x="385" y="-281"/>
      <point x="385" y="-183" type="curve" smooth="yes"/>
      <point x="385" y="-109"/>
      <point x="353" y="-32"/>
      <point x="353" y="37" type="curve" smooth="yes"/>
      <point x="353" y="88"/>
      <point x="398" y="212"/>
      <point x="462" y="245" type="curve" smooth="yes"/>
      <point x="469" y="249"/>
      <point x="477" y="256"/>
      <point x="477" y="263" type="curve" smooth="yes"/>
      <point x="477" y="305"/>
      <point x="378" y="367"/>
      <point x="378" y="446" type="curve" smooth="yes"/>
      <point x="378" y="501"/>
      <point x="412" y="565"/>
      <point x="412" y="618" type="curve" smooth="yes"/>
      <point x="412" y="743"/>
      <point x="328" y="849"/>
      <point x="203" y="849" type="curve" smooth="yes"/>
      <point x="167" y="849"/>
      <point x="61" y="832"/>
      <point x="61" y="798" type="curve" smooth="yes"/>
      <point x="61" y="786"/>
      <point x="75" y="783"/>
      <point x="88" y="783" type="curve" smooth="yes"/>
      <point x="119" y="783"/>
      <point x="132" y="793"/>
      <point x="155" y="793" type="curve" smooth="yes"/>
      <point x="234" y="793"/>
      <point x="277" y="675"/>
      <point x="277" y="594" type="curve" smooth="yes"/>
      <point x="277" y="541"/>
      <point x="240" y="467"/>
      <point x="240" y="414" type="curve" smooth="yes"/>
      <point x="240" y="347"/>
      <point x="310" y="281"/>
      <point x="357" y="239" type="curve"/>
      <point x="286" y="177"/>
      <point x="218" y="54"/>
      <point x="218" y="-17" type="curve" smooth="yes"/>
      <point x="218" y="-93"/>
      <point x="250" y="-113"/>
      <point x="250" y="-184" type="curve" smooth="yes"/>
      <point x="250" y="-235"/>
      <point x="150" y="-236"/>
      <point x="128" y="-236" type="curve" smooth="yes"/>
      <point x="89" y="-236"/>
      <point x="27" y="-258"/>
      <point x="27" y="-283" type="curve" smooth="yes"/>
      <point x="27" y="-298"/>
      <point x="139" y="-313"/>
    </contour>
  </outline>
</glyph>
<glyph name="exclamdown" format="1">
  <advance width="497"/>
  <unicode hex="00A1"/>
  <outline>
    <contour>
      <point x="156" y="-232" type="curve" smooth="yes"/>
      <point x="254" y="-137"/>
      <point x="307" y="69"/>
      <point x="307" y="175" type="curve" smooth="yes"/>
      <point x="307" y="214"/>
      <point x="296" y="237"/>
      <point x="263" y="237" type="curve" smooth="yes"/>
      <point x="207" y="237"/>
      <point x="148" y="210"/>
      <point x="148" y="174" type="curve" smooth="yes"/>
      <point x="148" y="146"/>
      <point x="158" y="107"/>
      <point x="158" y="80" type="curve" smooth="yes"/>
      <point x="158" y="-24"/>
      <point x="43" y="-114"/>
      <point x="40" y="-187" type="curve" smooth="yes"/>
      <point x="40" y="-201"/>
      <point x="75" y="-249"/>
      <point x="116" y="-249" type="curve" smooth="yes"/>
      <point x="129" y="-249"/>
      <point x="143" y="-245"/>
    </contour>
    <contour>
      <point x="163" y="369" type="curve"/>
      <point x="180" y="333"/>
      <point x="212" y="302"/>
      <point x="250" y="302" type="curve" smooth="yes"/>
      <point x="305" y="302"/>
      <point x="357" y="367"/>
      <point x="357" y="439" type="curve" smooth="yes"/>
      <point x="357" y="467"/>
      <point x="344" y="487"/>
      <point x="309" y="487" type="curve" smooth="yes"/>
      <point x="248" y="487"/>
      <point x="189" y="437"/>
    </contour>
  </outline>
</glyph>
<glyph name="cent" format="1">
  <advance width="445"/>
  <unicode hex="00A2"/>
  <outline>
    <contour>
      <point x="347" y="764" type="curve" smooth="yes"/>
      <point x="330" y="706"/>
      <point x="318" y="660"/>
      <point x="308" y="620" type="curve"/>
      <point x="304" y="620" type="line" smooth="yes"/>
      <point x="166" y="620"/>
      <point x="20" y="481"/>
      <point x="20" y="290" type="curve" smooth="yes"/>
      <point x="20" y="194"/>
      <point x="86" y="146"/>
      <point x="157" y="136" type="curve"/>
      <point x="147" y="106"/>
      <point x="141" y="83"/>
      <point x="141" y="61" type="curve" smooth="yes"/>
      <point x="141" y="22"/>
      <point x="167" y="-18"/>
      <point x="199" y="-18" type="curve" smooth="yes"/>
      <point x="204" y="-18"/>
      <point x="210" y="-14"/>
      <point x="211" y="-9" type="curve" smooth="yes"/>
      <point x="245" y="139" type="line"/>
      <point x="381" y="166"/>
      <point x="445" y="283"/>
      <point x="445" y="338" type="curve" smooth="yes"/>
      <point x="445" y="362"/>
      <point x="437" y="376"/>
      <point x="427" y="376" type="curve" smooth="yes"/>
      <point x="405" y="376"/>
      <point x="345" y="271"/>
      <point x="273" y="252" type="curve"/>
      <point x="290" y="317"/>
      <point x="309" y="382"/>
      <point x="338" y="471" type="curve"/>
      <point x="360" y="456"/>
      <point x="382" y="442"/>
      <point x="394" y="442" type="curve" smooth="yes"/>
      <point x="421" y="442"/>
      <point x="443" y="472"/>
      <point x="443" y="519" type="curve" smooth="yes"/>
      <point x="443" y="546"/>
      <point x="420" y="579"/>
      <point x="383" y="600" type="curve"/>
      <point x="400" y="642"/>
      <point x="415" y="675"/>
      <point x="415" y="694" type="curve" smooth="yes"/>
      <point x="415" y="724"/>
      <point x="391" y="772"/>
      <point x="358" y="772" type="curve" smooth="yes"/>
      <point x="352" y="772"/>
      <point x="348" y="768"/>
    </contour>
    <contour>
      <point x="266" y="511" type="curve" smooth="yes"/>
      <point x="270" y="511"/>
      <point x="275" y="509"/>
      <point x="281" y="506" type="curve"/>
      <point x="264" y="429"/>
      <point x="234" y="334"/>
      <point x="206" y="258" type="curve"/>
      <point x="185" y="268"/>
      <point x="167" y="285"/>
      <point x="167" y="316" type="curve" smooth="yes"/>
      <point x="167" y="406"/>
      <point x="206" y="511"/>
    </contour>
  </outline>
</glyph>
<glyph name="brokenbar" format="1">
  <advance width="462"/>
  <unicode hex="00A6"/>
  <outline>
    <contour>
      <point x="200" y="414" type="line"/>
      <point x="262" y="414" type="line"/>
      <point x="262" y="804" type="line"/>
      <point x="200" y="804" type="line"/>
    </contour>
    <contour>
      <point x="200" y="-46" type="line"/>
      <point x="262" y="-46" type="line"/>
      <point x="262" y="349" type="line"/>
      <point x="200" y="349" type="line"/>
    </contour>
  </outline>
</glyph>
<glyph name="section" format="1">
  <advance width="501"/>
  <unicode hex="00A7"/>
  <outline>
    <contour>
      <point x="363" y="637" type="curve" smooth="yes"/>
      <point x="363" y="695"/>
      <point x="469" y="669"/>
      <point x="469" y="698" type="curve" smooth="yes"/>
      <point x="469" y="717"/>
      <point x="442" y="749"/>
      <point x="387" y="749" type="curve" smooth="yes"/>
      <point x="297" y="749"/>
      <point x="205" y="696"/>
      <point x="205" y="602" type="curve" smooth="yes"/>
      <point x="205" y="548"/>
      <point x="253" y="486"/>
      <point x="274" y="447" type="curve"/>
      <point x="183" y="430"/>
      <point x="86" y="338"/>
      <point x="86" y="240" type="curve" smooth="yes"/>
      <point x="86" y="126"/>
      <point x="200" y="76"/>
      <point x="200" y="-43" type="curve" smooth="yes"/>
      <point x="200" y="-48"/>
      <point x="197" y="-52"/>
      <point x="193" y="-52" type="curve" smooth="yes"/>
      <point x="179" y="-52"/>
      <point x="97" y="-29"/>
      <point x="71" y="-29" type="curve" smooth="yes"/>
      <point x="44" y="-29"/>
      <point x="20" y="-34"/>
      <point x="20" y="-56" type="curve" smooth="yes"/>
      <point x="20" y="-109"/>
      <point x="75" y="-162"/>
      <point x="146" y="-162" type="curve" smooth="yes"/>
      <point x="248" y="-162"/>
      <point x="324" y="-100"/>
      <point x="324" y="9" type="curve" smooth="yes"/>
      <point x="324" y="55"/>
      <point x="302" y="115"/>
      <point x="285" y="151" type="curve"/>
      <point x="382" y="180"/>
      <point x="461" y="247"/>
      <point x="461" y="352" type="curve" smooth="yes"/>
      <point x="461" y="488"/>
      <point x="363" y="515"/>
    </contour>
    <contour>
      <point x="239" y="237" type="curve"/>
      <point x="233" y="253"/>
      <point x="229" y="268"/>
      <point x="229" y="281" type="curve" smooth="yes"/>
      <point x="229" y="319"/>
      <point x="253" y="349"/>
      <point x="304" y="380" type="curve"/>
      <point x="319" y="380"/>
      <point x="329" y="357"/>
      <point x="329" y="329" type="curve" smooth="yes"/>
      <point x="329" y="288"/>
      <point x="309" y="240"/>
    </contour>
  </outline>
</glyph>
<glyph name="dieresis" format="1">
  <advance width="500"/>
  <unicode hex="00A8"/>
  <outline>
    <contour>
      <point x="224" y="475" type="move" name="_top"/>
    </contour>
    <contour>
      <point x="233" y="685" type="curve"/>
      <point x="219" y="715"/>
      <point x="194" y="756"/>
      <point x="162" y="756" type="curve" smooth="yes"/>
      <point x="117" y="756"/>
      <point x="73" y="702"/>
      <point x="73" y="642" type="curve" smooth="yes"/>
      <point x="73" y="618"/>
      <point x="84" y="602"/>
      <point x="113" y="602" type="curve" smooth="yes"/>
      <point x="164" y="602"/>
      <point x="212" y="634"/>
    </contour>
    <contour>
      <point x="427" y="714" type="curve"/>
      <point x="408" y="737"/>
      <point x="381" y="747"/>
      <point x="349" y="747" type="curve" smooth="yes"/>
      <point x="304" y="747"/>
      <point x="273" y="709"/>
      <point x="273" y="649" type="curve" smooth="yes"/>
      <point x="273" y="625"/>
      <point x="293" y="602"/>
      <point x="323" y="602" type="curve" smooth="yes"/>
      <point x="374" y="602"/>
      <point x="405" y="657"/>
    </contour>
  </outline>
</glyph>
<glyph name="guillemotleft" format="1">
  <advance width="809"/>
  <unicode hex="00AB"/>
  <outline>
    <contour>
      <point x="115" y="247" type="curve"/>
      <point x="104" y="234"/>
      <point x="100" y="228"/>
      <point x="100" y="223" type="curve" smooth="yes"/>
      <point x="100" y="217"/>
      <point x="105" y="212"/>
      <point x="112" y="206" type="curve" smooth="yes"/>
      <point x="222" y="107"/>
      <point x="263" y="66"/>
      <point x="343" y="14" type="curve" smooth="yes"/>
      <point x="348" y="11"/>
      <point x="356" y="8"/>
      <point x="366" y="8" type="curve" smooth="yes"/>
      <point x="404" y="8"/>
      <point x="465" y="36"/>
      <point x="465" y="53" type="curve" smooth="yes"/>
      <point x="465" y="63"/>
      <point x="323" y="178"/>
      <point x="243" y="244" type="curve"/>
      <point x="274" y="284"/>
      <point x="443" y="428"/>
      <point x="467" y="444" type="curve" smooth="yes"/>
      <point x="476" y="450"/>
      <point x="479" y="456"/>
      <point x="479" y="461" type="curve" smooth="yes"/>
      <point x="479" y="473"/>
      <point x="460" y="474"/>
      <point x="452" y="474" type="curve" smooth="yes"/>
      <point x="328" y="474"/>
      <point x="189" y="345"/>
    </contour>
    <contour>
      <point x="385" y="277" type="curve" smooth="yes"/>
      <point x="373" y="265"/>
      <point x="370" y="258"/>
      <point x="370" y="253" type="curve" smooth="yes"/>
      <point x="370" y="247"/>
      <point x="374" y="242"/>
      <point x="382" y="236" type="curve" smooth="yes"/>
      <point x="504" y="143"/>
      <point x="544" y="86"/>
      <point x="643" y="14" type="curve"/>
      <point x="649" y="12"/>
      <point x="656" y="8"/>
      <point x="666" y="8" type="curve" smooth="yes"/>
      <point x="704" y="8"/>
      <point x="735" y="36"/>
      <point x="735" y="53" type="curve" smooth="yes"/>
      <point x="735" y="55"/>
      <point x="599" y="210"/>
      <point x="511" y="275" type="curve"/>
      <point x="542" y="315"/>
      <point x="713" y="428"/>
      <point x="737" y="444" type="curve" smooth="yes"/>
      <point x="746" y="450"/>
      <point x="749" y="456"/>
      <point x="749" y="461" type="curve" smooth="yes"/>
      <point x="749" y="473"/>
      <point x="730" y="474"/>
      <point x="722" y="474" type="curve" smooth="yes"/>
      <point x="612" y="474"/>
      <point x="489" y="375"/>
    </contour>
  </outline>
</glyph>
<glyph name="macron" format="1">
  <advance width="500"/>
  <unicode hex="00AF"/>
  <outline>
    <contour>
      <point x="149" y="751" type="curve" smooth="yes"/>
      <point x="75" y="751"/>
      <point x="12" y="733"/>
      <point x="12" y="670" type="curve" smooth="yes"/>
      <point x="12" y="663"/>
      <point x="15" y="661"/>
      <point x="18" y="661" type="curve" smooth="yes"/>
      <point x="48" y="661"/>
      <point x="95" y="663"/>
      <point x="163" y="663" type="curve" smooth="yes"/>
      <point x="183" y="663"/>
      <point x="407" y="656"/>
      <point x="421" y="656" type="curve" smooth="yes"/>
      <point x="443" y="656"/>
      <point x="488" y="709"/>
      <point x="488" y="731" type="curve" smooth="yes"/>
      <point x="488" y="744"/>
      <point x="484" y="748"/>
      <point x="476" y="748" type="curve" smooth="yes"/>
      <point x="453" y="748"/>
      <point x="206" y="751"/>
    </contour>
  </outline>
</glyph>
<glyph name="periodcentered" format="1">
  <advance width="366"/>
  <unicode hex="00B7"/>
  <outline>
    <contour>
      <point x="100" y="294" type="curve" smooth="yes"/>
      <point x="100" y="234"/>
      <point x="123" y="208"/>
      <point x="183" y="208" type="curve" smooth="yes"/>
      <point x="242" y="208"/>
      <point x="266" y="234"/>
      <point x="266" y="294" type="curve" smooth="yes"/>
      <point x="266" y="353"/>
      <point x="246" y="381"/>
      <point x="183" y="381" type="curve" smooth="yes"/>
      <point x="123" y="381"/>
      <point x="100" y="353"/>
    </contour>
  </outline>
</glyph>
<glyph name="uni00B9" format="1">
  <advance width="285"/>
  <unicode hex="00B9"/>
  <outline>
    <contour>
      <point x="151" y="734" type="curve" smooth="yes"/>
      <point x="124" y="725"/>
      <point x="98" y="701"/>
      <point x="98" y="673" type="curve" smooth="yes"/>
      <point x="98" y="666"/>
      <point x="101" y="654"/>
      <point x="112" y="654" type="curve" smooth="yes"/>
      <point x="130" y="654"/>
      <point x="167" y="679"/>
      <point x="167" y="679" type="curve"/>
      <point x="150" y="626"/>
      <point x="130" y="549"/>
      <point x="129" y="510" type="curve"/>
      <point x="79" y="504"/>
      <point x="55" y="482"/>
      <point x="55" y="458" type="curve" smooth="yes"/>
      <point x="55" y="451"/>
      <point x="58" y="445"/>
      <point x="69" y="445" type="curve" smooth="yes"/>
      <point x="86" y="445"/>
      <point x="115" y="454"/>
      <point x="155" y="454" type="curve" smooth="yes"/>
      <point x="170" y="454"/>
      <point x="210" y="452"/>
      <point x="232" y="452" type="curve" smooth="yes"/>
      <point x="253" y="452"/>
      <point x="265" y="477"/>
      <point x="265" y="494" type="curve" smooth="yes"/>
      <point x="265" y="507"/>
      <point x="258" y="510"/>
      <point x="247" y="510" type="curve" smooth="yes"/>
      <point x="207" y="510" type="line"/>
      <point x="216" y="591"/>
      <point x="246" y="686"/>
      <point x="246" y="723" type="curve" smooth="yes"/>
      <point x="246" y="729"/>
      <point x="243" y="735"/>
      <point x="229" y="751" type="curve"/>
      <point x="198" y="751"/>
      <point x="172" y="741"/>
    </contour>
  </outline>
</glyph>
<glyph name="ordmasculine" format="1">
  <advance width="428"/>
  <unicode hex="00BA"/>
  <outline>
    <contour>
      <point x="244" y="759" type="curve" smooth="yes"/>
      <point x="143" y="759"/>
      <point x="80" y="675"/>
      <point x="80" y="585" type="curve" smooth="yes"/>
      <point x="80" y="524"/>
      <point x="119" y="467"/>
      <point x="210" y="467" type="curve" smooth="yes"/>
      <point x="256" y="467"/>
      <point x="295" y="489"/>
      <point x="323" y="520" type="curve"/>
      <point x="329" y="519"/>
      <point x="336" y="519"/>
      <point x="343" y="519" type="curve" smooth="yes"/>
      <point x="384" y="519"/>
      <point x="418" y="543"/>
      <point x="418" y="590" type="curve" smooth="yes"/>
      <point x="418" y="604"/>
      <point x="416" y="612"/>
      <point x="410" y="612" type="curve" smooth="yes"/>
      <point x="395" y="612"/>
      <point x="387" y="585"/>
      <point x="358" y="577" type="curve"/>
      <point x="367" y="598"/>
      <point x="372" y="619"/>
      <point x="372" y="638" type="curve" smooth="yes"/>
      <point x="372" y="675"/>
      <point x="353" y="703"/>
      <point x="314" y="703" type="curve" smooth="yes"/>
      <point x="262" y="703"/>
      <point x="234" y="662"/>
      <point x="234" y="626" type="curve" smooth="yes"/>
      <point x="234" y="588"/>
      <point x="248" y="559"/>
      <point x="273" y="540" type="curve"/>
      <point x="261" y="534"/>
      <point x="247" y="531"/>
      <point x="232" y="531" type="curve" smooth="yes"/>
      <point x="189" y="531"/>
      <point x="168" y="559"/>
      <point x="168" y="594" type="curve" smooth="yes"/>
      <point x="168" y="665"/>
      <point x="218" y="714"/>
      <point x="287" y="714" type="curve" smooth="yes"/>
      <point x="321" y="714"/>
      <point x="333" y="719"/>
      <point x="333" y="724" type="curve" smooth="yes"/>
      <point x="333" y="741"/>
      <point x="288" y="759"/>
    </contour>
    <contour>
      <point x="304" y="632" type="curve" smooth="yes"/>
      <point x="304" y="641"/>
      <point x="309" y="654"/>
      <point x="317" y="654" type="curve" smooth="yes"/>
      <point x="326" y="654"/>
      <point x="330" y="645"/>
      <point x="330" y="635" type="curve" smooth="yes"/>
      <point x="330" y="621"/>
      <point x="326" y="603"/>
      <point x="317" y="586" type="curve"/>
      <point x="308" y="597"/>
      <point x="304" y="613"/>
    </contour>
  </outline>
</glyph>
<glyph name="onequarter" format="1">
  <advance width="699"/>
  <unicode hex="00BC"/>
  <outline>
    <contour>
      <point x="105" y="37" type="line"/>
      <point x="103" y="31"/>
      <point x="102" y="26"/>
      <point x="102" y="20" type="curve" smooth="yes"/>
      <point x="102" y="-6"/>
      <point x="129" y="-54"/>
      <point x="158" y="-54" type="curve" smooth="yes"/>
      <point x="161" y="-54"/>
      <point x="163" y="-53"/>
      <point x="164" y="-51" type="curve" smooth="yes"/>
      <point x="198" y="54"/>
      <point x="339" y="289"/>
      <point x="445" y="456" type="curve" smooth="yes"/>
      <point x="508" y="555"/>
      <point x="563" y="621"/>
      <point x="563" y="669" type="curve" smooth="yes"/>
      <point x="563" y="703"/>
      <point x="529" y="751"/>
      <point x="510" y="751" type="curve" smooth="yes"/>
      <point x="505" y="751"/>
      <point x="502" y="748"/>
      <point x="500" y="743" type="curve"/>
    </contour>
    <contour>
      <point x="156" y="734" type="curve" smooth="yes"/>
      <point x="129" y="725"/>
      <point x="103" y="701"/>
      <point x="103" y="673" type="curve" smooth="yes"/>
      <point x="103" y="666"/>
      <point x="106" y="654"/>
      <point x="117" y="654" type="curve" smooth="yes"/>
      <point x="135" y="654"/>
      <point x="172" y="679"/>
      <point x="172" y="679" type="curve"/>
      <point x="155" y="626"/>
      <point x="135" y="549"/>
      <point x="134" y="510" type="curve"/>
      <point x="84" y="504"/>
      <point x="60" y="482"/>
      <point x="60" y="458" type="curve" smooth="yes"/>
      <point x="60" y="451"/>
      <point x="63" y="445"/>
      <point x="74" y="445" type="curve" smooth="yes"/>
      <point x="91" y="445"/>
      <point x="120" y="454"/>
      <point x="160" y="454" type="curve" smooth="yes"/>
      <point x="175" y="454"/>
      <point x="215" y="452"/>
      <point x="237" y="452" type="curve" smooth="yes"/>
      <point x="258" y="452"/>
      <point x="270" y="477"/>
      <point x="270" y="494" type="curve" smooth="yes"/>
      <point x="270" y="507"/>
      <point x="263" y="510"/>
      <point x="252" y="510" type="curve" smooth="yes"/>
      <point x="212" y="510" type="line"/>
      <point x="221" y="591"/>
      <point x="251" y="686"/>
      <point x="251" y="723" type="curve" smooth="yes"/>
      <point x="251" y="729"/>
      <point x="248" y="735"/>
      <point x="234" y="751" type="curve"/>
      <point x="203" y="751"/>
      <point x="177" y="741"/>
    </contour>
    <contour>
      <point x="556" y="264" type="curve" smooth="yes"/>
      <point x="543" y="241"/>
      <point x="530" y="194"/>
      <point x="518" y="148" type="curve"/>
      <point x="466" y="144" type="line"/>
      <point x="478" y="185"/>
      <point x="499" y="220"/>
      <point x="499" y="254" type="curve" smooth="yes"/>
      <point x="499" y="268"/>
      <point x="492" y="277"/>
      <point x="483" y="277" type="curve" smooth="yes"/>
      <point x="458" y="277"/>
      <point x="403" y="176"/>
      <point x="390" y="123" type="curve"/>
      <point x="395" y="109"/>
      <point x="404" y="97"/>
      <point x="429" y="82" type="curve"/>
      <point x="505" y="89" type="line"/>
      <point x="501" y="69"/>
      <point x="499" y="51"/>
      <point x="499" y="39" type="curve" smooth="yes"/>
      <point x="499" y="2"/>
      <point x="511" y="-10"/>
      <point x="550" y="-10" type="curve" smooth="yes"/>
      <point x="561" y="-10"/>
      <point x="576" y="-7"/>
      <point x="576" y="10" type="curve" smooth="yes"/>
      <point x="576" y="33"/>
      <point x="578" y="60"/>
      <point x="581" y="89" type="curve"/>
      <point x="592" y="88"/>
      <point x="607" y="88"/>
      <point x="611" y="88" type="curve" smooth="yes"/>
      <point x="629" y="88"/>
      <point x="649" y="114"/>
      <point x="649" y="130" type="curve" smooth="yes"/>
      <point x="649" y="143"/>
      <point x="641" y="147"/>
      <point x="629" y="147" type="curve" smooth="yes"/>
      <point x="589" y="147" type="line"/>
      <point x="598" y="198"/>
      <point x="608" y="237"/>
      <point x="608" y="274" type="curve" smooth="yes"/>
      <point x="608" y="284"/>
      <point x="605" y="292"/>
      <point x="593" y="292" type="curve" smooth="yes"/>
      <point x="577" y="292"/>
      <point x="563" y="276"/>
    </contour>
  </outline>
</glyph>
<glyph name="questiondown" format="1">
  <advance width="572"/>
  <unicode hex="00BF"/>
  <outline>
    <contour>
      <point x="502" y="-71" type="curve" smooth="yes"/>
      <point x="502" y="-64"/>
      <point x="497" y="-55"/>
      <point x="489" y="-55" type="curve" smooth="yes"/>
      <point x="434" y="-55"/>
      <point x="437" y="-150"/>
      <point x="302" y="-150" type="curve" smooth="yes"/>
      <point x="245" y="-150"/>
      <point x="207" y="-115"/>
      <point x="207" y="-54" type="curve" smooth="yes"/>
      <point x="207" y="131"/>
      <point x="380" y="38"/>
      <point x="380" y="249" type="curve" smooth="yes"/>
      <point x="380" y="279"/>
      <point x="339" y="296"/>
      <point x="319" y="296" type="curve" smooth="yes"/>
      <point x="312" y="296"/>
      <point x="308" y="294"/>
      <point x="308" y="290" type="curve" smooth="yes"/>
      <point x="308" y="136"/>
      <point x="50" y="232"/>
      <point x="50" y="-66" type="curve" smooth="yes"/>
      <point x="50" y="-182"/>
      <point x="134" y="-246"/>
      <point x="277" y="-246" type="curve" smooth="yes"/>
      <point x="422" y="-246"/>
      <point x="502" y="-140"/>
    </contour>
    <contour>
      <point x="457" y="412" type="curve" smooth="yes"/>
      <point x="457" y="451"/>
      <point x="422" y="489"/>
      <point x="391" y="489" type="curve" smooth="yes"/>
      <point x="346" y="489"/>
      <point x="304" y="436"/>
      <point x="304" y="377" type="curve" smooth="yes"/>
      <point x="304" y="355"/>
      <point x="315" y="338"/>
      <point x="343" y="338" type="curve" smooth="yes"/>
      <point x="393" y="338"/>
      <point x="457" y="353"/>
    </contour>
  </outline>
</glyph>
<glyph name="AE" format="1">
  <advance width="1010"/>
  <unicode hex="00C6"/>
  <outline>
    <contour>
      <point x="724" y="-11" type="curve" smooth="yes"/>
      <point x="887" y="-11"/>
      <point x="1004" y="22"/>
      <point x="1004" y="130" type="curve" smooth="yes"/>
      <point x="1004" y="153"/>
      <point x="996" y="168"/>
      <point x="986" y="168" type="curve" smooth="yes"/>
      <point x="938" y="168"/>
      <point x="937" y="104"/>
      <point x="784" y="104" type="curve" smooth="yes"/>
      <point x="719" y="104"/>
      <point x="645" y="101"/>
      <point x="584" y="98" type="curve"/>
      <point x="588" y="170"/>
      <point x="601" y="231"/>
      <point x="616" y="285" type="curve"/>
      <point x="626" y="312" type="line"/>
      <point x="727" y="311"/>
      <point x="813" y="310"/>
      <point x="825" y="310" type="curve" smooth="yes"/>
      <point x="855" y="310"/>
      <point x="869" y="321"/>
      <point x="880" y="347" type="curve" smooth="yes"/>
      <point x="886" y="363"/>
      <point x="900" y="387"/>
      <point x="900" y="395" type="curve" smooth="yes"/>
      <point x="900" y="424"/>
      <point x="859" y="413"/>
      <point x="663" y="415" type="curve"/>
      <point x="678" y="464"/>
      <point x="689" y="515"/>
      <point x="689" y="566" type="curve" smooth="yes"/>
      <point x="689" y="590"/>
      <point x="686" y="613"/>
      <point x="681" y="634" type="curve"/>
      <point x="784" y="633"/>
      <point x="931" y="632"/>
      <point x="952" y="632" type="curve" smooth="yes"/>
      <point x="983" y="632"/>
      <point x="998" y="643"/>
      <point x="1009" y="671" type="curve" smooth="yes"/>
      <point x="1016" y="689"/>
      <point x="1030" y="715"/>
      <point x="1030" y="723" type="curve" smooth="yes"/>
      <point x="1030" y="739"/>
      <point x="1020" y="744"/>
      <point x="1003" y="744" type="curve" smooth="yes"/>
      <point x="960" y="744"/>
      <point x="702" y="748"/>
      <point x="569" y="749" type="curve"/>
      <point x="550" y="754"/>
      <point x="528" y="757"/>
      <point x="503" y="757" type="curve" smooth="yes"/>
      <point x="348" y="757"/>
      <point x="233" y="585"/>
      <point x="164" y="409" type="curve"/>
      <point x="49" y="389"/>
      <point x="-20" y="339"/>
      <point x="-20" y="301" type="curve" smooth="yes"/>
      <point x="-20" y="295"/>
      <point x="-15" y="291"/>
      <point x="-7" y="291" type="curve" smooth="yes"/>
      <point x="26" y="291"/>
      <point x="71" y="299"/>
      <point x="129" y="306" type="curve"/>
      <point x="102" y="215"/>
      <point x="88" y="132"/>
      <point x="88" y="82" type="curve" smooth="yes"/>
      <point x="88" y="21"/>
      <point x="105" y="-15"/>
      <point x="138" y="-15" type="curve" smooth="yes"/>
      <point x="164" y="-15"/>
      <point x="187" y="-2"/>
      <point x="212" y="10" type="curve" smooth="yes"/>
      <point x="243" y="25"/>
      <point x="253" y="52"/>
      <point x="253" y="84" type="curve" smooth="yes"/>
      <point x="253" y="137"/>
      <point x="256" y="227"/>
      <point x="271" y="317" type="curve"/>
      <point x="285" y="317" type="line" smooth="yes"/>
      <point x="301" y="317"/>
      <point x="388" y="316"/>
      <point x="488" y="314" type="curve"/>
      <point x="485" y="305" type="line" smooth="yes"/>
      <point x="455" y="223"/>
      <point x="433" y="140"/>
      <point x="433" y="82" type="curve" smooth="yes"/>
      <point x="433" y="21"/>
      <point x="434" y="-15"/>
      <point x="467" y="-15" type="curve" smooth="yes"/>
      <point x="497" y="-15"/>
      <point x="528" y="-12"/>
      <point x="550" y="-2" type="curve"/>
      <point x="605" y="-4"/>
      <point x="700" y="-11"/>
    </contour>
    <contour>
      <point x="484" y="621" type="curve" smooth="yes"/>
      <point x="524" y="621"/>
      <point x="545" y="586"/>
      <point x="545" y="531" type="curve" smooth="yes"/>
      <point x="545" y="502"/>
      <point x="534" y="462"/>
      <point x="520" y="416" type="curve"/>
      <point x="429" y="416"/>
      <point x="348" y="417"/>
      <point x="293" y="417" type="curve"/>
      <point x="325" y="528"/>
      <point x="383" y="621"/>
    </contour>
  </outline>
</glyph>
<glyph name="Ccedilla" format="1">
  <advance width="549"/>
  <unicode hex="00C7"/>
  <outline>
    <contour>
      <point x="156" y="741" type="curve" smooth="yes"/>
      <point x="146" y="741"/>
      <point x="136" y="732"/>
      <point x="136" y="719" type="curve" smooth="yes"/>
      <point x="136" y="692"/>
      <point x="156" y="649"/>
      <point x="186" y="613" type="curve"/>
      <point x="105" y="513"/>
      <point x="60" y="375"/>
      <point x="60" y="249" type="curve" smooth="yes"/>
      <point x="60" y="103"/>
      <point x="147" y="10"/>
      <point x="298" y="-5" type="curve"/>
      <point x="297" y="-29"/>
      <point x="291" y="-67"/>
      <point x="283" y="-87" type="curve" smooth="yes"/>
      <point x="282" y="-89"/>
      <point x="282" y="-90"/>
      <point x="282" y="-93" type="curve" smooth="yes"/>
      <point x="282" y="-102"/>
      <point x="296" y="-105"/>
      <point x="311" y="-105" type="curve" smooth="yes"/>
      <point x="324" y="-105"/>
      <point x="340" y="-102"/>
      <point x="351" y="-99" type="curve"/>
      <point x="356" y="-108"/>
      <point x="359" y="-121"/>
      <point x="359" y="-130" type="curve" smooth="yes"/>
      <point x="359" y="-155"/>
      <point x="341" y="-190"/>
      <point x="319" y="-212" type="curve"/>
      <point x="299" y="-189"/>
      <point x="305" y="-150"/>
      <point x="264" y="-150" type="curve" smooth="yes"/>
      <point x="238" y="-150"/>
      <point x="203" y="-164"/>
      <point x="203" y="-181" type="curve" smooth="yes"/>
      <point x="203" y="-226"/>
      <point x="251" y="-269"/>
      <point x="298" y="-269" type="curve" smooth="yes"/>
      <point x="381" y="-269"/>
      <point x="451" y="-180"/>
      <point x="451" y="-115" type="curve" smooth="yes"/>
      <point x="451" y="-75"/>
      <point x="427" y="-50"/>
      <point x="384" y="-50" type="curve"/>
      <point x="387" y="-35"/>
      <point x="389" y="-19"/>
      <point x="390" y="-5" type="curve"/>
      <point x="515" y="8"/>
      <point x="629" y="82"/>
      <point x="629" y="198" type="curve" smooth="yes"/>
      <point x="629" y="221"/>
      <point x="624" y="236"/>
      <point x="614" y="236" type="curve" smooth="yes"/>
      <point x="606" y="236"/>
      <point x="593" y="227"/>
      <point x="578" y="207" type="curve" smooth="yes"/>
      <point x="525" y="139"/>
      <point x="436" y="104"/>
      <point x="363" y="104" type="curve" smooth="yes"/>
      <point x="264" y="104"/>
      <point x="217" y="171"/>
      <point x="217" y="287" type="curve" smooth="yes"/>
      <point x="217" y="365"/>
      <point x="242" y="464"/>
      <point x="288" y="540" type="curve"/>
      <point x="346" y="517"/>
      <point x="399" y="508"/>
      <point x="445" y="508" type="curve" smooth="yes"/>
      <point x="552" y="508"/>
      <point x="618" y="563"/>
      <point x="618" y="633" type="curve" smooth="yes"/>
      <point x="618" y="729"/>
      <point x="547" y="756"/>
      <point x="465" y="756" type="curve" smooth="yes"/>
      <point x="379" y="756"/>
      <point x="305" y="724"/>
      <point x="244" y="672" type="curve"/>
      <point x="209" y="694"/>
      <point x="181" y="741"/>
    </contour>
    <contour>
      <point x="458" y="657" type="curve" smooth="yes"/>
      <point x="491" y="657"/>
      <point x="507" y="645"/>
      <point x="507" y="618" type="curve" smooth="yes"/>
      <point x="507" y="595"/>
      <point x="485" y="585"/>
      <point x="453" y="585" type="curve" smooth="yes"/>
      <point x="420" y="585"/>
      <point x="376" y="589"/>
      <point x="336" y="602" type="curve"/>
      <point x="370" y="636"/>
      <point x="411" y="657"/>
    </contour>
  </outline>
</glyph>
<glyph name="Ecircumflex" format="1">
  <advance width="529"/>
  <unicode hex="00CA"/>
  <outline>
    <contour>
      <point x="309" y="-3" type="curve" smooth="yes"/>
      <point x="472" y="-3"/>
      <point x="609" y="90"/>
      <point x="609" y="198" type="curve" smooth="yes"/>
      <point x="609" y="221"/>
      <point x="601" y="236"/>
      <point x="591" y="236" type="curve" smooth="yes"/>
      <point x="571" y="236"/>
      <point x="496" y="112"/>
      <point x="369" y="112" type="curve" smooth="yes"/>
      <point x="272" y="112"/>
      <point x="207" y="145"/>
      <point x="207" y="228" type="curve" smooth="yes"/>
      <point x="207" y="296"/>
      <point x="229" y="333"/>
      <point x="267" y="359" type="curve"/>
      <point x="283" y="354"/>
      <point x="299" y="351"/>
      <point x="315" y="351" type="curve" smooth="yes"/>
      <point x="356" y="351"/>
      <point x="415" y="360"/>
      <point x="415" y="402" type="curve" smooth="yes"/>
      <point x="415" y="439"/>
      <point x="373" y="446"/>
      <point x="328" y="446" type="curve" smooth="yes"/>
      <point x="316" y="446"/>
      <point x="305" y="445"/>
      <point x="295" y="443" type="curve"/>
      <point x="272" y="464"/>
      <point x="255" y="497"/>
      <point x="255" y="540" type="curve" smooth="yes"/>
      <point x="255" y="545"/>
      <point x="255" y="551"/>
      <point x="256" y="556" type="curve"/>
      <point x="296" y="527"/>
      <point x="336" y="508"/>
      <point x="390" y="508" type="curve" smooth="yes"/>
      <point x="497" y="508"/>
      <point x="563" y="563"/>
      <point x="563" y="633" type="curve" smooth="yes"/>
      <point x="563" y="729"/>
      <point x="481" y="756"/>
      <point x="399" y="756" type="curve" smooth="yes"/>
      <point x="311" y="756"/>
      <point x="244" y="733"/>
      <point x="196" y="704" type="curve"/>
      <point x="160" y="726"/>
      <point x="126" y="781"/>
      <point x="101" y="781" type="curve" smooth="yes"/>
      <point x="91" y="781"/>
      <point x="81" y="772"/>
      <point x="81" y="759" type="curve" smooth="yes"/>
      <point x="81" y="730"/>
      <point x="104" y="684"/>
      <point x="137" y="647" type="curve"/>
      <point x="119" y="619"/>
      <point x="110" y="588"/>
      <point x="110" y="556" type="curve" smooth="yes"/>
      <point x="110" y="485"/>
      <point x="134" y="436"/>
      <point x="183" y="402" type="curve"/>
      <point x="102" y="370"/>
      <point x="40" y="309"/>
      <point x="40" y="202" type="curve" smooth="yes"/>
      <point x="40" y="56"/>
      <point x="154" y="-3"/>
    </contour>
    <contour>
      <point x="309" y="864" type="curve" smooth="yes"/>
      <point x="339" y="890"/>
      <point x="363" y="909"/>
      <point x="388" y="929" type="curve"/>
      <point x="437" y="897"/>
      <point x="466" y="871"/>
      <point x="516" y="822" type="curve" smooth="yes"/>
      <point x="523" y="815"/>
      <point x="536" y="811"/>
      <point x="549" y="811" type="curve" smooth="yes"/>
      <point x="590" y="811"/>
      <point x="645" y="837"/>
      <point x="645" y="861" type="curve" smooth="yes"/>
      <point x="645" y="864"/>
      <point x="643" y="869"/>
      <point x="639" y="873" type="curve" smooth="yes"/>
      <point x="575" y="945"/>
      <point x="540" y="966"/>
      <point x="456" y="1015" type="curve" smooth="yes"/>
      <point x="448" y="1020"/>
      <point x="438" y="1022"/>
      <point x="428" y="1022" type="curve" smooth="yes"/>
      <point x="396" y="1022"/>
      <point x="363" y="1006"/>
      <point x="342" y="990" type="curve" smooth="yes"/>
      <point x="289" y="949"/>
      <point x="253" y="925"/>
      <point x="204" y="883" type="curve" smooth="yes"/>
      <point x="196" y="876"/>
      <point x="191" y="868"/>
      <point x="191" y="860" type="curve" smooth="yes"/>
      <point x="191" y="840"/>
      <point x="220" y="838"/>
      <point x="233" y="838" type="curve" smooth="yes"/>
      <point x="260" y="838"/>
      <point x="290" y="847"/>
    </contour>
    <contour>
      <point x="392" y="657" type="curve" smooth="yes"/>
      <point x="425" y="657"/>
      <point x="452" y="645"/>
      <point x="452" y="618" type="curve" smooth="yes"/>
      <point x="452" y="595"/>
      <point x="430" y="585"/>
      <point x="398" y="585" type="curve" smooth="yes"/>
      <point x="352" y="585"/>
      <point x="316" y="599"/>
      <point x="285" y="618" type="curve"/>
      <point x="312" y="645"/>
      <point x="352" y="657"/>
    </contour>
  </outline>
</glyph>
<glyph name="Idieresis" format="1">
  <advance width="328"/>
  <unicode hex="00CF"/>
  <outline>
    <contour>
      <point x="206" y="684" type="curve" smooth="yes"/>
      <point x="153" y="567"/>
      <point x="65" y="228"/>
      <point x="65" y="102" type="curve" smooth="yes"/>
      <point x="65" y="25"/>
      <point x="90" y="-5"/>
      <point x="174" y="-5" type="curve" smooth="yes"/>
      <point x="192" y="-5"/>
      <point x="214" y="1"/>
      <point x="214" y="23" type="curve" smooth="yes"/>
      <point x="214" y="252"/>
      <point x="323" y="604"/>
      <point x="323" y="700" type="curve" smooth="yes"/>
      <point x="323" y="727"/>
      <point x="308" y="754"/>
      <point x="290" y="754" type="curve" smooth="yes"/>
      <point x="246" y="754"/>
      <point x="221" y="717"/>
    </contour>
    <contour>
      <point x="285" y="930" type="curve"/>
      <point x="271" y="960"/>
      <point x="246" y="1001"/>
      <point x="214" y="1001" type="curve" smooth="yes"/>
      <point x="169" y="1001"/>
      <point x="125" y="947"/>
      <point x="125" y="887" type="curve" smooth="yes"/>
      <point x="125" y="863"/>
      <point x="136" y="847"/>
      <point x="165" y="847" type="curve" smooth="yes"/>
      <point x="216" y="847"/>
      <point x="264" y="879"/>
    </contour>
    <contour>
      <point x="479" y="959" type="curve"/>
      <point x="460" y="982"/>
      <point x="433" y="992"/>
      <point x="401" y="992" type="curve" smooth="yes"/>
      <point x="356" y="992"/>
      <point x="325" y="954"/>
      <point x="325" y="894" type="curve" smooth="yes"/>
      <point x="325" y="870"/>
      <point x="345" y="847"/>
      <point x="375" y="847" type="curve" smooth="yes"/>
      <point x="426" y="847"/>
      <point x="457" y="902"/>
    </contour>
  </outline>
</glyph>
<glyph name="Ograve" format="1">
  <advance width="849"/>
  <unicode hex="00D2"/>
  <outline>
    <contour>
      <point x="476" y="753" type="curve" smooth="yes"/>
      <point x="226" y="753"/>
      <point x="70" y="533"/>
      <point x="70" y="299" type="curve" smooth="yes"/>
      <point x="70" y="142"/>
      <point x="165" y="-8"/>
      <point x="391" y="-8" type="curve" smooth="yes"/>
      <point x="597" y="-8"/>
      <point x="728" y="117"/>
      <point x="768" y="308" type="curve"/>
      <point x="820" y="325"/>
      <point x="854" y="360"/>
      <point x="854" y="407" type="curve" smooth="yes"/>
      <point x="854" y="416"/>
      <point x="848" y="424"/>
      <point x="840" y="424" type="curve" smooth="yes"/>
      <point x="817" y="424"/>
      <point x="804" y="408"/>
      <point x="780" y="398" type="curve"/>
      <point x="781" y="413"/>
      <point x="782" y="429"/>
      <point x="782" y="445" type="curve" smooth="yes"/>
      <point x="782" y="536"/>
      <point x="741" y="612"/>
      <point x="649" y="612" type="curve" smooth="yes"/>
      <point x="570" y="612"/>
      <point x="516" y="550"/>
      <point x="516" y="476" type="curve" smooth="yes"/>
      <point x="516" y="377"/>
      <point x="570" y="313"/>
      <point x="667" y="301" type="curve"/>
      <point x="627" y="198"/>
      <point x="541" y="125"/>
      <point x="401" y="125" type="curve" smooth="yes"/>
      <point x="292" y="125"/>
      <point x="227" y="205"/>
      <point x="227" y="337" type="curve" smooth="yes"/>
      <point x="227" y="484"/>
      <point x="316" y="657"/>
      <point x="468" y="657" type="curve" smooth="yes"/>
      <point x="576" y="657"/>
      <point x="637" y="639"/>
      <point x="667" y="639" type="curve" smooth="yes"/>
      <point x="684" y="639"/>
      <point x="697" y="641"/>
      <point x="697" y="650" type="curve" smooth="yes"/>
      <point x="697" y="695"/>
      <point x="611" y="753"/>
    </contour>
    <contour>
      <point x="457" y="830" type="curve" smooth="yes"/>
      <point x="486" y="830"/>
      <point x="541" y="840"/>
      <point x="541" y="855" type="curve" smooth="yes"/>
      <point x="541" y="860"/>
      <point x="535" y="865"/>
      <point x="521" y="869" type="curve" smooth="yes"/>
      <point x="434" y="894"/>
      <point x="368" y="928"/>
      <point x="317" y="997" type="curve" smooth="yes"/>
      <point x="310" y="1006"/>
      <point x="297" y="1012"/>
      <point x="280" y="1012" type="curve" smooth="yes"/>
      <point x="249" y="1012"/>
      <point x="193" y="997"/>
      <point x="193" y="975" type="curve" smooth="yes"/>
      <point x="193" y="877"/>
      <point x="381" y="830"/>
    </contour>
    <contour>
      <point x="644" y="485" type="curve" smooth="yes"/>
      <point x="644" y="506"/>
      <point x="651" y="524"/>
      <point x="665" y="524" type="curve" smooth="yes"/>
      <point x="692" y="524"/>
      <point x="695" y="482"/>
      <point x="695" y="459" type="curve" smooth="yes"/>
      <point x="695" y="440"/>
      <point x="694" y="421"/>
      <point x="692" y="403" type="curve"/>
      <point x="664" y="419"/>
      <point x="644" y="448"/>
    </contour>
  </outline>
</glyph>
<glyph name="multiply" format="1">
  <advance width="502"/>
  <unicode hex="00D7"/>
  <outline>
    <contour>
      <point x="399" y="76" type="line"/>
      <point x="442" y="119" type="line"/>
      <point x="293" y="268" type="line"/>
      <point x="435" y="410" type="line"/>
      <point x="394" y="451" type="line"/>
      <point x="252" y="308" type="line"/>
      <point x="110" y="451" type="line"/>
      <point x="67" y="408" type="line"/>
      <point x="209" y="265" type="line"/>
      <point x="60" y="116" type="line"/>
      <point x="101" y="75" type="line"/>
      <point x="250" y="225" type="line"/>
    </contour>
  </outline>
</glyph>
<glyph name="Udieresis" format="1">
  <advance width="691"/>
  <unicode hex="00DC"/>
  <outline>
    <contour>
      <point x="550" y="-3" type="curve" smooth="yes"/>
      <point x="659" y="-3"/>
      <point x="771" y="111"/>
      <point x="771" y="198" type="curve" smooth="yes"/>
      <point x="771" y="221"/>
      <point x="767" y="233"/>
      <point x="757" y="233" type="curve" smooth="yes"/>
      <point x="738" y="233"/>
      <point x="649" y="112"/>
      <point x="610" y="112" type="curve" smooth="yes"/>
      <point x="592" y="112"/>
      <point x="585" y="148"/>
      <point x="585" y="203" type="curve" smooth="yes"/>
      <point x="585" y="339"/>
      <point x="636" y="587"/>
      <point x="636" y="650" type="curve" smooth="yes"/>
      <point x="636" y="713"/>
      <point x="632" y="751"/>
      <point x="608" y="751" type="curve" smooth="yes"/>
      <point x="557" y="751"/>
      <point x="484" y="712"/>
      <point x="484" y="646" type="curve" smooth="yes"/>
      <point x="484" y="622"/>
      <point x="488" y="474"/>
      <point x="488" y="437" type="curve"/>
      <point x="482" y="392" type="line"/>
      <point x="460" y="270"/>
      <point x="401" y="124"/>
      <point x="297" y="124" type="curve" smooth="yes"/>
      <point x="243" y="124"/>
      <point x="227" y="159"/>
      <point x="227" y="191" type="curve" smooth="yes"/>
      <point x="227" y="337"/>
      <point x="296" y="473"/>
      <point x="296" y="596" type="curve" smooth="yes"/>
      <point x="296" y="654"/>
      <point x="270" y="750"/>
      <point x="170" y="750" type="curve" smooth="yes"/>
      <point x="79" y="750"/>
      <point x="0" y="698"/>
      <point x="0" y="625" type="curve" smooth="yes"/>
      <point x="0" y="604"/>
      <point x="6" y="597"/>
      <point x="16" y="597" type="curve" smooth="yes"/>
      <point x="55" y="597"/>
      <point x="78" y="647"/>
      <point x="115" y="647" type="curve" smooth="yes"/>
      <point x="146" y="647"/>
      <point x="156" y="608"/>
      <point x="156" y="566" type="curve" smooth="yes"/>
      <point x="156" y="480"/>
      <point x="75" y="235"/>
      <point x="75" y="182" type="curve" smooth="yes"/>
      <point x="75" y="54"/>
      <point x="151" y="-3"/>
      <point x="269" y="-3" type="curve" smooth="yes"/>
      <point x="373" y="-3"/>
      <point x="433" y="71"/>
      <point x="468" y="152" type="curve"/>
      <point x="469" y="61"/>
      <point x="479" y="-3"/>
    </contour>
    <contour>
      <point x="389" y="930" type="curve"/>
      <point x="375" y="960"/>
      <point x="350" y="1001"/>
      <point x="318" y="1001" type="curve" smooth="yes"/>
      <point x="273" y="1001"/>
      <point x="229" y="947"/>
      <point x="229" y="887" type="curve" smooth="yes"/>
      <point x="229" y="863"/>
      <point x="240" y="847"/>
      <point x="269" y="847" type="curve" smooth="yes"/>
      <point x="320" y="847"/>
      <point x="368" y="879"/>
    </contour>
    <contour>
      <point x="583" y="959" type="curve"/>
      <point x="564" y="982"/>
      <point x="537" y="992"/>
      <point x="505" y="992" type="curve" smooth="yes"/>
      <point x="460" y="992"/>
      <point x="429" y="954"/>
      <point x="429" y="894" type="curve" smooth="yes"/>
      <point x="429" y="870"/>
      <point x="449" y="847"/>
      <point x="479" y="847" type="curve" smooth="yes"/>
      <point x="530" y="847"/>
      <point x="561" y="902"/>
    </contour>
  </outline>
</glyph>
<glyph name="Thorn" format="1">
  <advance width="574"/>
  <unicode hex="00DE"/>
  <outline>
    <contour>
      <point x="208" y="679" type="curve" smooth="yes"/>
      <point x="196" y="652"/>
      <point x="182" y="614"/>
      <point x="168" y="571" type="curve"/>
      <point x="104" y="543"/>
      <point x="53" y="507"/>
      <point x="53" y="485" type="curve" smooth="yes"/>
      <point x="53" y="474"/>
      <point x="59" y="468"/>
      <point x="73" y="468" type="curve" smooth="yes"/>
      <point x="89" y="468"/>
      <point x="113" y="472"/>
      <point x="140" y="477" type="curve"/>
      <point x="121" y="409"/>
      <point x="103" y="336"/>
      <point x="89" y="269" type="curve"/>
      <point x="73" y="276"/>
      <point x="57" y="281"/>
      <point x="42" y="281" type="curve" smooth="yes"/>
      <point x="33" y="281"/>
      <point x="25" y="279"/>
      <point x="25" y="270" type="curve" smooth="yes"/>
      <point x="25" y="254"/>
      <point x="46" y="227"/>
      <point x="76" y="199" type="curve"/>
      <point x="70" y="160"/>
      <point x="67" y="127"/>
      <point x="67" y="102" type="curve" smooth="yes"/>
      <point x="67" y="25"/>
      <point x="92" y="-5"/>
      <point x="176" y="-5" type="curve" smooth="yes"/>
      <point x="231" y="-5"/>
      <point x="215" y="57"/>
      <point x="220" y="105" type="curve"/>
      <point x="240" y="97"/>
      <point x="260" y="92"/>
      <point x="277" y="92" type="curve" smooth="yes"/>
      <point x="462" y="92"/>
      <point x="544" y="232"/>
      <point x="544" y="369" type="curve" smooth="yes"/>
      <point x="544" y="548"/>
      <point x="429" y="607"/>
      <point x="315" y="607" type="curve" smooth="yes"/>
      <point x="313" y="607" type="line"/>
      <point x="320" y="644"/>
      <point x="325" y="675"/>
      <point x="325" y="695" type="curve" smooth="yes"/>
      <point x="325" y="722"/>
      <point x="301" y="749"/>
      <point x="292" y="749" type="curve" smooth="yes"/>
      <point x="248" y="749"/>
      <point x="223" y="712"/>
    </contour>
    <contour>
      <point x="315" y="511" type="curve" smooth="yes"/>
      <point x="360" y="511"/>
      <point x="397" y="466"/>
      <point x="397" y="377" type="curve" smooth="yes"/>
      <point x="397" y="300"/>
      <point x="359" y="203"/>
      <point x="288" y="203" type="curve" smooth="yes"/>
      <point x="268" y="203"/>
      <point x="249" y="205"/>
      <point x="232" y="209" type="curve"/>
      <point x="248" y="312"/>
      <point x="273" y="420"/>
      <point x="292" y="509" type="curve"/>
      <point x="300" y="510"/>
      <point x="308" y="511"/>
    </contour>
  </outline>
</glyph>
<glyph name="germandbls" format="1">
  <advance width="637"/>
  <unicode hex="00DF"/>
  <outline>
    <contour>
      <point x="510" y="-3" type="curve" smooth="yes"/>
      <point x="645" y="-3"/>
      <point x="717" y="118"/>
      <point x="717" y="198" type="curve" smooth="yes"/>
      <point x="717" y="221"/>
      <point x="712" y="236"/>
      <point x="702" y="236" type="curve" smooth="yes"/>
      <point x="673" y="236"/>
      <point x="608" y="102"/>
      <point x="540" y="102" type="curve" smooth="yes"/>
      <point x="527" y="102" type="line"/>
      <point x="546" y="134"/>
      <point x="557" y="172"/>
      <point x="558" y="217" type="curve" smooth="yes"/>
      <point x="558" y="223" type="line" smooth="yes"/>
      <point x="558" y="331"/>
      <point x="494" y="361"/>
      <point x="456" y="412" type="curve"/>
      <point x="497" y="458"/>
      <point x="532" y="514"/>
      <point x="532" y="608" type="curve" smooth="yes"/>
      <point x="532" y="695"/>
      <point x="472" y="745"/>
      <point x="380" y="745" type="curve" smooth="yes"/>
      <point x="146" y="745"/>
      <point x="-40" y="157"/>
      <point x="-40" y="-181" type="curve" smooth="yes"/>
      <point x="-40" y="-203"/>
      <point x="-34" y="-218"/>
      <point x="-21" y="-233" type="curve" smooth="yes"/>
      <point x="-11" y="-245"/>
      <point x="13" y="-274"/>
      <point x="41" y="-274" type="curve" smooth="yes"/>
      <point x="97" y="-274"/>
      <point x="69" y="-211"/>
      <point x="141" y="148" type="curve" smooth="yes"/>
      <point x="189" y="388"/>
      <point x="306" y="648"/>
      <point x="391" y="648" type="curve" smooth="yes"/>
      <point x="414" y="648"/>
      <point x="429" y="632"/>
      <point x="429" y="601" type="curve" smooth="yes"/>
      <point x="429" y="493"/>
      <point x="324" y="498"/>
      <point x="324" y="410" type="curve" smooth="yes"/>
      <point x="324" y="326"/>
      <point x="429" y="275"/>
      <point x="429" y="202" type="curve" smooth="yes"/>
      <point x="429" y="181"/>
      <point x="426" y="163"/>
      <point x="420" y="147" type="curve"/>
      <point x="383" y="172"/>
      <point x="349" y="198"/>
      <point x="301" y="198" type="curve" smooth="yes"/>
      <point x="224" y="198"/>
      <point x="168" y="164"/>
      <point x="168" y="95" type="curve" smooth="yes"/>
      <point x="168" y="29"/>
      <point x="206" y="-17"/>
      <point x="288" y="-17" type="curve" smooth="yes"/>
      <point x="344" y="-17"/>
      <point x="398" y="-4"/>
      <point x="442" y="20" type="curve"/>
      <point x="463" y="7"/>
      <point x="485" y="-3"/>
    </contour>
    <contour>
      <point x="299" y="61" type="curve" smooth="yes"/>
      <point x="283" y="61"/>
      <point x="265" y="69"/>
      <point x="265" y="89" type="curve" smooth="yes"/>
      <point x="265" y="109"/>
      <point x="282" y="119"/>
      <point x="301" y="119" type="curve" smooth="yes"/>
      <point x="325" y="119"/>
      <point x="347" y="101"/>
      <point x="370" y="82" type="curve"/>
      <point x="348" y="68"/>
      <point x="323" y="61"/>
    </contour>
  </outline>
</glyph>
<glyph name="adieresis" format="1">
  <advance width="582"/>
  <unicode hex="00E4"/>
  <outline>
    <contour>
      <point x="360" y="472" type="curve" smooth="yes"/>
      <point x="339" y="476"/>
      <point x="319" y="478"/>
      <point x="300" y="478" type="curve" smooth="yes"/>
      <point x="217" y="478"/>
      <point x="145" y="426"/>
      <point x="99" y="371" type="curve" smooth="yes"/>
      <point x="48" y="309"/>
      <point x="25" y="226"/>
      <point x="25" y="150" type="curve" smooth="yes"/>
      <point x="25" y="54"/>
      <point x="89" y="-8"/>
      <point x="182" y="-8" type="curve" smooth="yes"/>
      <point x="274" y="-8"/>
      <point x="326" y="33"/>
      <point x="361" y="90" type="curve"/>
      <point x="372" y="35"/>
      <point x="394" y="-3"/>
      <point x="432" y="-3" type="curve" smooth="yes"/>
      <point x="537" y="-3"/>
      <point x="662" y="111"/>
      <point x="662" y="198" type="curve" smooth="yes"/>
      <point x="662" y="221"/>
      <point x="654" y="236"/>
      <point x="644" y="236" type="curve" smooth="yes"/>
      <point x="626" y="236"/>
      <point x="533" y="112"/>
      <point x="492" y="112" type="curve" smooth="yes"/>
      <point x="477" y="112"/>
      <point x="471" y="148"/>
      <point x="471" y="194" type="curve" smooth="yes"/>
      <point x="471" y="245"/>
      <point x="472" y="286"/>
      <point x="479" y="324" type="curve"/>
      <point x="494" y="349"/>
      <point x="507" y="373"/>
      <point x="520" y="403" type="curve"/>
      <point x="520" y="436"/>
      <point x="465" y="491"/>
      <point x="424" y="491" type="curve" smooth="yes"/>
      <point x="410" y="491"/>
      <point x="399" y="480"/>
      <point x="390" y="462" type="curve"/>
      <point x="383" y="466"/>
      <point x="373" y="469"/>
    </contour>
    <contour>
      <point x="229" y="99" type="curve" smooth="yes"/>
      <point x="184" y="99"/>
      <point x="172" y="137"/>
      <point x="172" y="176" type="curve" smooth="yes"/>
      <point x="172" y="311"/>
      <point x="276" y="392"/>
      <point x="373" y="410" type="curve"/>
      <point x="358" y="346"/>
      <point x="354" y="259"/>
      <point x="353" y="218" type="curve"/>
      <point x="329" y="133"/>
      <point x="275" y="99"/>
    </contour>
    <contour>
      <point x="325" y="685" type="curve"/>
      <point x="311" y="715"/>
      <point x="286" y="756"/>
      <point x="254" y="756" type="curve" smooth="yes"/>
      <point x="209" y="756"/>
      <point x="165" y="702"/>
      <point x="165" y="642" type="curve" smooth="yes"/>
      <point x="165" y="618"/>
      <point x="176" y="602"/>
      <point x="205" y="602" type="curve" smooth="yes"/>
      <point x="256" y="602"/>
      <point x="304" y="634"/>
    </contour>
    <contour>
      <point x="519" y="714" type="curve"/>
      <point x="500" y="737"/>
      <point x="473" y="747"/>
      <point x="441" y="747" type="curve" smooth="yes"/>
      <point x="396" y="747"/>
      <point x="365" y="709"/>
      <point x="365" y="649" type="curve" smooth="yes"/>
      <point x="365" y="625"/>
      <point x="385" y="602"/>
      <point x="415" y="602" type="curve" smooth="yes"/>
      <point x="466" y="602"/>
      <point x="497" y="657"/>
    </contour>
  </outline>
</glyph>
<glyph name="aring" format="1">
  <advance width="582"/>
  <unicode hex="00E5"/>
  <outline>
    <contour>
      <point x="360" y="472" type="curve" smooth="yes"/>
      <point x="339" y="476"/>
      <point x="319" y="478"/>
      <point x="300" y="478" type="curve" smooth="yes"/>
      <point x="217" y="478"/>
      <point x="145" y="426"/>
      <point x="99" y="371" type="curve" smooth="yes"/>
      <point x="48" y="309"/>
      <point x="25" y="226"/>
      <point x="25" y="150" type="curve" smooth="yes"/>
      <point x="25" y="54"/>
      <point x="89" y="-8"/>
      <point x="182" y="-8" type="curve" smooth="yes"/>
      <point x="274" y="-8"/>
      <point x="326" y="33"/>
      <point x="361" y="90" type="curve"/>
      <point x="372" y="35"/>
      <point x="394" y="-3"/>
      <point x="432" y="-3" type="curve" smooth="yes"/>
      <point x="537" y="-3"/>
      <point x="662" y="111"/>
      <point x="662" y="198" type="curve" smooth="yes"/>
      <point x="662" y="221"/>
      <point x="654" y="236"/>
      <point x="644" y="236" type="curve" smooth="yes"/>
      <point x="626" y="236"/>
      <point x="533" y="112"/>
      <point x="492" y="112" type="curve" smooth="yes"/>
      <point x="477" y="112"/>
      <point x="471" y="148"/>
      <point x="471" y="194" type="curve" smooth="yes"/>
      <point x="471" y="245"/>
      <point x="472" y="286"/>
      <point x="479" y="324" type="curve"/>
      <point x="494" y="349"/>
      <point x="507" y="373"/>
      <point x="520" y="403" type="curve"/>
      <point x="520" y="436"/>
      <point x="465" y="491"/>
      <point x="424" y="491" type="curve" smooth="yes"/>
      <point x="410" y="491"/>
      <point x="399" y="480"/>
      <point x="390" y="462" type="curve"/>
      <point x="383" y="466"/>
      <point x="373" y="469"/>
    </contour>
    <contour>
      <point x="326" y="812" type="line" smooth="yes"/>
      <point x="257" y="812"/>
      <point x="199" y="769"/>
      <point x="199" y="701" type="curve" smooth="yes"/>
      <point x="199" y="622"/>
      <point x="267" y="570"/>
      <point x="341" y="570" type="curve" smooth="yes"/>
      <point x="406" y="570"/>
      <point x="507" y="615"/>
      <point x="507" y="686" type="curve" smooth="yes"/>
      <point x="507" y="748"/>
      <point x="417" y="815"/>
      <point x="355" y="815" type="curve" smooth="yes"/>
      <point x="349" y="815"/>
      <point x="343" y="814"/>
      <point x="337" y="812" type="curve"/>
    </contour>
    <contour>
      <point x="229" y="99" type="curve" smooth="yes"/>
      <point x="184" y="99"/>
      <point x="172" y="137"/>
      <point x="172" y="176" type="curve" smooth="yes"/>
      <point x="172" y="311"/>
      <point x="276" y="392"/>
      <point x="373" y="410" type="curve"/>
      <point x="358" y="346"/>
      <point x="354" y="259"/>
      <point x="353" y="218" type="curve"/>
      <point x="329" y="133"/>
      <point x="275" y="99"/>
    </contour>
    <contour>
      <point x="409" y="675" type="curve" smooth="yes"/>
      <point x="409" y="649"/>
      <point x="388" y="639"/>
      <point x="367" y="639" type="curve" smooth="yes"/>
      <point x="323" y="639"/>
      <point x="297" y="677"/>
      <point x="297" y="716" type="curve" smooth="yes"/>
      <point x="297" y="727"/>
      <point x="299" y="736"/>
      <point x="304" y="744" type="curve"/>
      <point x="314" y="741"/>
      <point x="325" y="740"/>
      <point x="336" y="740" type="curve" smooth="yes"/>
      <point x="340" y="740"/>
      <point x="344" y="740"/>
      <point x="348" y="741" type="curve"/>
      <point x="376" y="729"/>
      <point x="409" y="703"/>
    </contour>
  </outline>
</glyph>
<glyph name="ae" format="1">
  <advance width="751"/>
  <unicode hex="00E6"/>
  <outline>
    <contour>
      <point x="596" y="109" type="curve" smooth="yes"/>
      <point x="563" y="109"/>
      <point x="513" y="118"/>
      <point x="502" y="159" type="curve"/>
      <point x="609" y="213"/>
      <point x="734" y="262"/>
      <point x="734" y="384" type="curve" smooth="yes"/>
      <point x="734" y="440"/>
      <point x="693" y="480"/>
      <point x="618" y="480" type="curve" smooth="yes"/>
      <point x="552" y="480"/>
      <point x="489" y="448"/>
      <point x="441" y="395" type="curve"/>
      <point x="416" y="441"/>
      <point x="372" y="478"/>
      <point x="300" y="478" type="curve" smooth="yes"/>
      <point x="217" y="478"/>
      <point x="145" y="426"/>
      <point x="99" y="371" type="curve" smooth="yes"/>
      <point x="48" y="309"/>
      <point x="25" y="226"/>
      <point x="25" y="150" type="curve" smooth="yes"/>
      <point x="25" y="54"/>
      <point x="89" y="-8"/>
      <point x="182" y="-8" type="curve" smooth="yes"/>
      <point x="263" y="-8"/>
      <point x="321" y="22"/>
      <point x="374" y="68" type="curve"/>
      <point x="405" y="17"/>
      <point x="467" y="-6"/>
      <point x="530" y="-6" type="curve" smooth="yes"/>
      <point x="759" y="-6"/>
      <point x="831" y="142"/>
      <point x="831" y="198" type="curve" smooth="yes"/>
      <point x="831" y="221"/>
      <point x="827" y="233"/>
      <point x="817" y="233" type="curve" smooth="yes"/>
      <point x="794" y="233"/>
      <point x="728" y="109"/>
    </contour>
    <contour>
      <point x="229" y="99" type="curve" smooth="yes"/>
      <point x="184" y="99"/>
      <point x="172" y="137"/>
      <point x="172" y="176" type="curve" smooth="yes"/>
      <point x="172" y="290"/>
      <point x="237" y="381"/>
      <point x="332" y="381" type="curve" smooth="yes"/>
      <point x="359" y="381"/>
      <point x="386" y="367"/>
      <point x="408" y="351" type="curve"/>
      <point x="374" y="297"/>
      <point x="353" y="228"/>
      <point x="353" y="150" type="curve"/>
      <point x="353" y="149" type="line"/>
      <point x="307" y="119"/>
      <point x="261" y="99"/>
    </contour>
    <contour>
      <point x="579" y="391" type="curve" smooth="yes"/>
      <point x="600" y="391"/>
      <point x="610" y="381"/>
      <point x="610" y="366" type="curve" smooth="yes"/>
      <point x="610" y="324"/>
      <point x="560" y="278"/>
      <point x="502" y="233" type="curve"/>
      <point x="509" y="308"/>
      <point x="531" y="391"/>
    </contour>
  </outline>
</glyph>
<glyph name="ccedilla" format="1">
  <advance width="365"/>
  <unicode hex="00E7"/>
  <outline>
    <contour>
      <point x="256" y="371" type="curve" smooth="yes"/>
      <point x="281" y="371"/>
      <point x="288" y="342"/>
      <point x="314" y="342" type="curve" smooth="yes"/>
      <point x="341" y="342"/>
      <point x="363" y="372"/>
      <point x="363" y="419" type="curve" smooth="yes"/>
      <point x="363" y="455"/>
      <point x="342" y="480"/>
      <point x="294" y="480" type="curve" smooth="yes"/>
      <point x="156" y="480"/>
      <point x="20" y="341"/>
      <point x="20" y="150" type="curve" smooth="yes"/>
      <point x="20" y="61"/>
      <point x="76" y="14"/>
      <point x="141" y="0" type="curve"/>
      <point x="140" y="-24"/>
      <point x="134" y="-65"/>
      <point x="125" y="-87" type="curve" smooth="yes"/>
      <point x="124" y="-89"/>
      <point x="124" y="-90"/>
      <point x="124" y="-93" type="curve" smooth="yes"/>
      <point x="124" y="-102"/>
      <point x="138" y="-105"/>
      <point x="153" y="-105" type="curve" smooth="yes"/>
      <point x="166" y="-105"/>
      <point x="182" y="-102"/>
      <point x="193" y="-99" type="curve"/>
      <point x="198" y="-108"/>
      <point x="201" y="-121"/>
      <point x="201" y="-130" type="curve" smooth="yes"/>
      <point x="201" y="-155"/>
      <point x="183" y="-190"/>
      <point x="161" y="-212" type="curve"/>
      <point x="141" y="-189"/>
      <point x="147" y="-150"/>
      <point x="106" y="-150" type="curve" smooth="yes"/>
      <point x="80" y="-150"/>
      <point x="45" y="-164"/>
      <point x="45" y="-181" type="curve" smooth="yes"/>
      <point x="45" y="-226"/>
      <point x="93" y="-269"/>
      <point x="140" y="-269" type="curve" smooth="yes"/>
      <point x="223" y="-269"/>
      <point x="293" y="-180"/>
      <point x="293" y="-115" type="curve" smooth="yes"/>
      <point x="293" y="-75"/>
      <point x="269" y="-50"/>
      <point x="226" y="-50" type="curve"/>
      <point x="229" y="-34"/>
      <point x="231" y="-16"/>
      <point x="232" y="-2" type="curve"/>
      <point x="377" y="19"/>
      <point x="445" y="141"/>
      <point x="445" y="198" type="curve" smooth="yes"/>
      <point x="445" y="222"/>
      <point x="437" y="236"/>
      <point x="427" y="236" type="curve" smooth="yes"/>
      <point x="402" y="236"/>
      <point x="332" y="109"/>
      <point x="252" y="109" type="curve" smooth="yes"/>
      <point x="225" y="109"/>
      <point x="167" y="121"/>
      <point x="167" y="176" type="curve" smooth="yes"/>
      <point x="167" y="266"/>
      <point x="196" y="371"/>
    </contour>
  </outline>
</glyph>
<glyph name="egrave" format="1">
  <advance width="418"/>
  <unicode hex="00E8"/>
  <outline>
    <contour>
      <point x="263" y="109" type="curve" smooth="yes"/>
      <point x="226" y="109"/>
      <point x="167" y="121"/>
      <point x="167" y="176" type="curve" smooth="yes"/>
      <point x="167" y="201" type="line"/>
      <point x="273" y="250"/>
      <point x="401" y="266"/>
      <point x="401" y="384" type="curve" smooth="yes"/>
      <point x="401" y="440"/>
      <point x="360" y="480"/>
      <point x="285" y="480" type="curve" smooth="yes"/>
      <point x="146" y="480"/>
      <point x="20" y="341"/>
      <point x="20" y="150" type="curve" smooth="yes"/>
      <point x="20" y="41"/>
      <point x="107" y="-6"/>
      <point x="197" y="-6" type="curve" smooth="yes"/>
      <point x="426" y="-6"/>
      <point x="498" y="142"/>
      <point x="498" y="198" type="curve" smooth="yes"/>
      <point x="498" y="221"/>
      <point x="494" y="233"/>
      <point x="484" y="233" type="curve" smooth="yes"/>
      <point x="461" y="233"/>
      <point x="395" y="109"/>
    </contour>
    <contour>
      <point x="247" y="555" type="curve" smooth="yes"/>
      <point x="258" y="555"/>
      <point x="267" y="557"/>
      <point x="267" y="562" type="curve" smooth="yes"/>
      <point x="267" y="573"/>
      <point x="261" y="578"/>
      <point x="255" y="582" type="curve" smooth="yes"/>
      <point x="197" y="621"/>
      <point x="168" y="676"/>
      <point x="162" y="751" type="curve" smooth="yes"/>
      <point x="159" y="780"/>
      <point x="121" y="787"/>
      <point x="96" y="787" type="curve" smooth="yes"/>
      <point x="56" y="787"/>
      <point x="51" y="770"/>
      <point x="51" y="738" type="curve" smooth="yes"/>
      <point x="51" y="614"/>
      <point x="153" y="555"/>
    </contour>
    <contour>
      <point x="246" y="391" type="curve" smooth="yes"/>
      <point x="267" y="391"/>
      <point x="277" y="381"/>
      <point x="277" y="366" type="curve" smooth="yes"/>
      <point x="277" y="325"/>
      <point x="230" y="307"/>
      <point x="174" y="270" type="curve"/>
      <point x="184" y="333"/>
      <point x="206" y="391"/>
    </contour>
  </outline>
</glyph>
<glyph name="ecircumflex" format="1">
  <advance width="418"/>
  <unicode hex="00EA"/>
  <outline>
    <contour>
      <point x="263" y="109" type="curve" smooth="yes"/>
      <point x="226" y="109"/>
      <point x="167" y="121"/>
      <point x="167" y="176" type="curve" smooth="yes"/>
      <point x="167" y="201" type="line"/>
      <point x="273" y="250"/>
      <point x="401" y="266"/>
      <point x="401" y="384" type="curve" smooth="yes"/>
      <point x="401" y="440"/>
      <point x="360" y="480"/>
      <point x="285" y="480" type="curve" smooth="yes"/>
      <point x="146" y="480"/>
      <point x="20" y="341"/>
      <point x="20" y="150" type="curve" smooth="yes"/>
      <point x="20" y="41"/>
      <point x="107" y="-6"/>
      <point x="197" y="-6" type="curve" smooth="yes"/>
      <point x="426" y="-6"/>
      <point x="498" y="142"/>
      <point x="498" y="198" type="curve" smooth="yes"/>
      <point x="498" y="221"/>
      <point x="494" y="233"/>
      <point x="484" y="233" type="curve" smooth="yes"/>
      <point x="461" y="233"/>
      <point x="395" y="109"/>
    </contour>
    <contour>
      <point x="208" y="589" type="curve" smooth="yes"/>
      <point x="238" y="614"/>
      <point x="263" y="641"/>
      <point x="287" y="668" type="curve"/>
      <point x="320" y="631"/>
      <point x="342" y="594"/>
      <point x="385" y="547" type="curve" smooth="yes"/>
      <point x="392" y="540"/>
      <point x="405" y="536"/>
      <point x="418" y="536" type="curve" smooth="yes"/>
      <point x="459" y="536"/>
      <point x="514" y="562"/>
      <point x="514" y="586" type="curve" smooth="yes"/>
      <point x="514" y="589"/>
      <point x="512" y="594"/>
      <point x="508" y="598" type="curve" smooth="yes"/>
      <point x="444" y="670"/>
      <point x="423" y="722"/>
      <point x="345" y="776" type="curve" smooth="yes"/>
      <point x="337" y="781"/>
      <point x="327" y="783"/>
      <point x="317" y="783" type="curve" smooth="yes"/>
      <point x="285" y="783"/>
      <point x="248" y="765"/>
      <point x="231" y="745" type="curve" smooth="yes"/>
      <point x="189" y="695"/>
      <point x="152" y="650"/>
      <point x="103" y="608" type="curve" smooth="yes"/>
      <point x="95" y="601"/>
      <point x="90" y="593"/>
      <point x="90" y="585" type="curve" smooth="yes"/>
      <point x="90" y="565"/>
      <point x="119" y="563"/>
      <point x="132" y="563" type="curve" smooth="yes"/>
      <point x="159" y="563"/>
      <point x="189" y="572"/>
    </contour>
    <contour>
      <point x="246" y="391" type="curve" smooth="yes"/>
      <point x="267" y="391"/>
      <point x="277" y="381"/>
      <point x="277" y="366" type="curve" smooth="yes"/>
      <point x="277" y="325"/>
      <point x="230" y="307"/>
      <point x="174" y="270" type="curve"/>
      <point x="184" y="333"/>
      <point x="206" y="391"/>
    </contour>
  </outline>
</glyph>
<glyph name="iacute" format="1">
  <advance width="291"/>
  <unicode hex="00ED"/>
  <outline>
    <contour>
      <point x="150" y="-3" type="curve" smooth="yes"/>
      <point x="259" y="-3"/>
      <point x="371" y="111"/>
      <point x="371" y="198" type="curve" smooth="yes"/>
      <point x="371" y="221"/>
      <point x="367" y="233"/>
      <point x="357" y="233" type="curve" smooth="yes"/>
      <point x="338" y="233"/>
      <point x="249" y="112"/>
      <point x="210" y="112" type="curve" smooth="yes"/>
      <point x="191" y="112"/>
      <point x="175" y="123"/>
      <point x="175" y="143" type="curve" smooth="yes"/>
      <point x="175" y="197"/>
      <point x="221" y="311"/>
      <point x="223" y="401" type="curve" smooth="yes"/>
      <point x="223" y="424"/>
      <point x="206" y="497"/>
      <point x="164" y="497" type="curve" smooth="yes"/>
      <point x="91" y="497"/>
      <point x="50" y="303"/>
      <point x="50" y="184" type="curve" smooth="yes"/>
      <point x="50" y="82"/>
      <point x="72" y="-3"/>
    </contour>
    <contour>
      <point x="402" y="741" type="curve" smooth="yes"/>
      <point x="410" y="754"/>
      <point x="418" y="770"/>
      <point x="418" y="775" type="curve" smooth="yes"/>
      <point x="418" y="785"/>
      <point x="395" y="791"/>
      <point x="370" y="791" type="curve" smooth="yes"/>
      <point x="343" y="791"/>
      <point x="311" y="784"/>
      <point x="303" y="768" type="curve" smooth="yes"/>
      <point x="269" y="703"/>
      <point x="258" y="630"/>
      <point x="175" y="603" type="curve" smooth="yes"/>
      <point x="167" y="600"/>
      <point x="136" y="586"/>
      <point x="136" y="569" type="curve" smooth="yes"/>
      <point x="136" y="552"/>
      <point x="157" y="550"/>
      <point x="175" y="550" type="curve" smooth="yes"/>
      <point x="270" y="550"/>
      <point x="342" y="639"/>
    </contour>
  </outline>
</glyph>
<glyph name="icircumflex" format="1">
  <advance width="291"/>
  <unicode hex="00EE"/>
  <outline>
    <contour>
      <point x="150" y="-3" type="curve" smooth="yes"/>
      <point x="259" y="-3"/>
      <point x="371" y="111"/>
      <point x="371" y="198" type="curve" smooth="yes"/>
      <point x="371" y="221"/>
      <point x="367" y="233"/>
      <point x="357" y="233" type="curve" smooth="yes"/>
      <point x="338" y="233"/>
      <point x="249" y="112"/>
      <point x="210" y="112" type="curve" smooth="yes"/>
      <point x="191" y="112"/>
      <point x="175" y="123"/>
      <point x="175" y="143" type="curve" smooth="yes"/>
      <point x="175" y="197"/>
      <point x="221" y="311"/>
      <point x="223" y="401" type="curve" smooth="yes"/>
      <point x="223" y="424"/>
      <point x="206" y="497"/>
      <point x="164" y="497" type="curve" smooth="yes"/>
      <point x="91" y="497"/>
      <point x="50" y="303"/>
      <point x="50" y="184" type="curve" smooth="yes"/>
      <point x="50" y="82"/>
      <point x="72" y="-3"/>
    </contour>
    <contour>
      <point x="261" y="548" type="curve" smooth="yes"/>
      <point x="267" y="540"/>
      <point x="281" y="537"/>
      <point x="294" y="537" type="curve" smooth="yes"/>
      <point x="335" y="537"/>
      <point x="370" y="563"/>
      <point x="370" y="587" type="curve" smooth="yes"/>
      <point x="370" y="590"/>
      <point x="367" y="595"/>
      <point x="364" y="599" type="curve" smooth="yes"/>
      <point x="311" y="682"/>
      <point x="315" y="705"/>
      <point x="246" y="777" type="curve" smooth="yes"/>
      <point x="240" y="784"/>
      <point x="228" y="784"/>
      <point x="218" y="784" type="curve" smooth="yes"/>
      <point x="152" y="784"/>
      <point x="64" y="577"/>
      <point x="64" y="583" type="curve" smooth="yes"/>
      <point x="64" y="568"/>
      <point x="92" y="564"/>
      <point x="105" y="564" type="curve" smooth="yes"/>
      <point x="150" y="564"/>
      <point x="165" y="603"/>
      <point x="196" y="660" type="curve"/>
      <point x="211" y="627"/>
      <point x="224" y="597"/>
    </contour>
  </outline>
</glyph>
<glyph name="idieresis" format="1">
  <advance width="291"/>
  <unicode hex="00EF"/>
  <outline>
    <contour>
      <point x="150" y="-3" type="curve" smooth="yes"/>
      <point x="259" y="-3"/>
      <point x="371" y="111"/>
      <point x="371" y="198" type="curve" smooth="yes"/>
      <point x="371" y="221"/>
      <point x="367" y="233"/>
      <point x="357" y="233" type="curve" smooth="yes"/>
      <point x="338" y="233"/>
      <point x="249" y="112"/>
      <point x="210" y="112" type="curve" smooth="yes"/>
      <point x="191" y="112"/>
      <point x="175" y="123"/>
      <point x="175" y="143" type="curve" smooth="yes"/>
      <point x="175" y="197"/>
      <point x="221" y="311"/>
      <point x="223" y="401" type="curve" smooth="yes"/>
      <point x="223" y="424"/>
      <point x="206" y="497"/>
      <point x="164" y="497" type="curve" smooth="yes"/>
      <point x="91" y="497"/>
      <point x="50" y="303"/>
      <point x="50" y="184" type="curve" smooth="yes"/>
      <point x="50" y="82"/>
      <point x="72" y="-3"/>
    </contour>
    <contour>
      <point x="167" y="660" type="curve"/>
      <point x="155" y="689"/>
      <point x="133" y="727"/>
      <point x="106" y="727" type="curve" smooth="yes"/>
      <point x="69" y="727"/>
      <point x="31" y="676"/>
      <point x="31" y="620" type="curve" smooth="yes"/>
      <point x="31" y="597"/>
      <point x="40" y="582"/>
      <point x="65" y="582" type="curve" smooth="yes"/>
      <point x="108" y="582"/>
      <point x="149" y="612"/>
    </contour>
    <contour>
      <point x="306" y="688" type="curve"/>
      <point x="290" y="709"/>
      <point x="267" y="719"/>
      <point x="239" y="719" type="curve" smooth="yes"/>
      <point x="202" y="719"/>
      <point x="176" y="683"/>
      <point x="176" y="626" type="curve" smooth="yes"/>
      <point x="176" y="604"/>
      <point x="192" y="582"/>
      <point x="218" y="582" type="curve" smooth="yes"/>
      <point x="261" y="582"/>
      <point x="287" y="634"/>
    </contour>
  </outline>
</glyph>
<glyph name="ocircumflex" format="1">
  <advance width="543"/>
  <unicode hex="00F4"/>
  <outline>
    <contour>
      <point x="299" y="480" type="curve" smooth="yes"/>
      <point x="130" y="480"/>
      <point x="25" y="340"/>
      <point x="25" y="189" type="curve" smooth="yes"/>
      <point x="25" y="88"/>
      <point x="90" y="-8"/>
      <point x="242" y="-8" type="curve" smooth="yes"/>
      <point x="321" y="-8"/>
      <point x="387" y="31"/>
      <point x="434" y="85" type="curve"/>
      <point x="454" y="81"/>
      <point x="475" y="79"/>
      <point x="498" y="79" type="curve" smooth="yes"/>
      <point x="565" y="79"/>
      <point x="623" y="119"/>
      <point x="623" y="198" type="curve" smooth="yes"/>
      <point x="623" y="221"/>
      <point x="619" y="234"/>
      <point x="609" y="234" type="curve" smooth="yes"/>
      <point x="584" y="234"/>
      <point x="570" y="173"/>
      <point x="495" y="173" type="curve" smooth="yes"/>
      <point x="489" y="173" type="line"/>
      <point x="504" y="208"/>
      <point x="512" y="244"/>
      <point x="512" y="277" type="curve" smooth="yes"/>
      <point x="512" y="339"/>
      <point x="480" y="386"/>
      <point x="415" y="386" type="curve" smooth="yes"/>
      <point x="329" y="386"/>
      <point x="283" y="317"/>
      <point x="283" y="258" type="curve" smooth="yes"/>
      <point x="283" y="198"/>
      <point x="309" y="150"/>
      <point x="354" y="119" type="curve"/>
      <point x="333" y="106"/>
      <point x="308" y="99"/>
      <point x="279" y="99" type="curve" smooth="yes"/>
      <point x="207" y="99"/>
      <point x="172" y="146"/>
      <point x="172" y="205" type="curve" smooth="yes"/>
      <point x="172" y="322"/>
      <point x="255" y="405"/>
      <point x="370" y="405" type="curve" smooth="yes"/>
      <point x="428" y="405"/>
      <point x="448" y="412"/>
      <point x="448" y="421" type="curve" smooth="yes"/>
      <point x="448" y="450"/>
      <point x="373" y="480"/>
    </contour>
    <contour>
      <point x="236" y="589" type="curve" smooth="yes"/>
      <point x="266" y="614"/>
      <point x="291" y="641"/>
      <point x="315" y="668" type="curve"/>
      <point x="348" y="631"/>
      <point x="370" y="594"/>
      <point x="413" y="547" type="curve" smooth="yes"/>
      <point x="420" y="540"/>
      <point x="433" y="536"/>
      <point x="446" y="536" type="curve" smooth="yes"/>
      <point x="487" y="536"/>
      <point x="542" y="562"/>
      <point x="542" y="586" type="curve" smooth="yes"/>
      <point x="542" y="589"/>
      <point x="540" y="594"/>
      <point x="536" y="598" type="curve" smooth="yes"/>
      <point x="472" y="670"/>
      <point x="451" y="722"/>
      <point x="373" y="776" type="curve" smooth="yes"/>
      <point x="365" y="781"/>
      <point x="355" y="783"/>
      <point x="345" y="783" type="curve" smooth="yes"/>
      <point x="313" y="783"/>
      <point x="276" y="765"/>
      <point x="259" y="745" type="curve" smooth="yes"/>
      <point x="217" y="695"/>
      <point x="180" y="650"/>
      <point x="131" y="608" type="curve" smooth="yes"/>
      <point x="123" y="601"/>
      <point x="118" y="593"/>
      <point x="118" y="585" type="curve" smooth="yes"/>
      <point x="118" y="565"/>
      <point x="147" y="563"/>
      <point x="160" y="563" type="curve" smooth="yes"/>
      <point x="187" y="563"/>
      <point x="217" y="572"/>
    </contour>
    <contour>
      <point x="399" y="267" type="curve" smooth="yes"/>
      <point x="399" y="283"/>
      <point x="408" y="305"/>
      <point x="420" y="305" type="curve" smooth="yes"/>
      <point x="436" y="305"/>
      <point x="442" y="289"/>
      <point x="442" y="272" type="curve" smooth="yes"/>
      <point x="442" y="252"/>
      <point x="437" y="226"/>
      <point x="425" y="201" type="curve"/>
      <point x="408" y="218"/>
      <point x="399" y="241"/>
    </contour>
  </outline>
</glyph>
<glyph name="oslash" format="1">
  <advance width="541"/>
  <unicode hex="00F8"/>
  <outline>
    <contour>
      <point x="31" y="46" type="curve"/>
      <point x="22" y="35"/>
      <point x="20" y="18"/>
      <point x="20" y="9" type="curve" smooth="yes"/>
      <point x="20" y="-9"/>
      <point x="24" y="-48"/>
      <point x="49" y="-48" type="curve" smooth="yes"/>
      <point x="64" y="-48"/>
      <point x="92" y="-18"/>
      <point x="121" y="18" type="curve"/>
      <point x="153" y="2"/>
      <point x="192" y="-8"/>
      <point x="240" y="-8" type="curve" smooth="yes"/>
      <point x="324" y="-8"/>
      <point x="393" y="36"/>
      <point x="441" y="91" type="curve"/>
      <point x="457" y="83"/>
      <point x="475" y="79"/>
      <point x="496" y="79" type="curve" smooth="yes"/>
      <point x="563" y="79"/>
      <point x="621" y="119"/>
      <point x="621" y="198" type="curve" smooth="yes"/>
      <point x="621" y="221"/>
      <point x="617" y="234"/>
      <point x="607" y="234" type="curve" smooth="yes"/>
      <point x="582" y="234"/>
      <point x="568" y="173"/>
      <point x="493" y="173" type="curve"/>
      <point x="492" y="173" type="line"/>
      <point x="504" y="200"/>
      <point x="510" y="225"/>
      <point x="510" y="247" type="curve" smooth="yes"/>
      <point x="510" y="309"/>
      <point x="485" y="334"/>
      <point x="442" y="334" type="curve" smooth="yes"/>
      <point x="387" y="334"/>
      <point x="366" y="287"/>
      <point x="366" y="228" type="curve" smooth="yes"/>
      <point x="366" y="199"/>
      <point x="373" y="171"/>
      <point x="387" y="146" type="curve"/>
      <point x="361" y="118"/>
      <point x="324" y="99"/>
      <point x="277" y="99" type="curve" smooth="yes"/>
      <point x="244" y="99"/>
      <point x="219" y="109"/>
      <point x="201" y="125" type="curve"/>
      <point x="206" y="130"/>
      <point x="285" y="222"/>
      <point x="384" y="333" type="curve" smooth="yes"/>
      <point x="436" y="391" type="line"/>
      <point x="462" y="383"/>
      <point x="485" y="374"/>
      <point x="497" y="374" type="curve" smooth="yes"/>
      <point x="503" y="374"/>
      <point x="506" y="376"/>
      <point x="506" y="381" type="curve" smooth="yes"/>
      <point x="506" y="401"/>
      <point x="491" y="419"/>
      <point x="469" y="434" type="curve"/>
      <point x="485" y="455"/>
      <point x="485" y="464"/>
      <point x="485" y="484" type="curve" smooth="yes"/>
      <point x="485" y="504"/>
      <point x="479" y="540"/>
      <point x="460" y="540" type="curve" smooth="yes"/>
      <point x="449" y="540"/>
      <point x="473" y="561"/>
      <point x="398" y="464" type="curve"/>
      <point x="363" y="474"/>
      <point x="325" y="480"/>
      <point x="297" y="480" type="curve" smooth="yes"/>
      <point x="128" y="480"/>
      <point x="23" y="340"/>
      <point x="23" y="189" type="curve" smooth="yes"/>
      <point x="23" y="147"/>
      <point x="34" y="106"/>
      <point x="58" y="72" type="curve"/>
      <point x="43" y="57"/>
      <point x="31" y="46"/>
    </contour>
    <contour>
      <point x="170" y="205" type="curve" smooth="yes"/>
      <point x="170" y="316"/>
      <point x="245" y="397"/>
      <point x="352" y="404" type="curve"/>
      <point x="251" y="275"/>
      <point x="224" y="245"/>
      <point x="171" y="188" type="curve"/>
      <point x="170" y="193"/>
      <point x="170" y="199"/>
    </contour>
  </outline>
</glyph>
<glyph name="thorn" format="1">
  <advance width="548"/>
  <unicode hex="00FE"/>
  <outline>
    <contour>
      <point x="204" y="720" type="curve" smooth="yes"/>
      <point x="106" y="571"/>
      <point x="50" y="248"/>
      <point x="50" y="82" type="curve" smooth="yes"/>
      <point x="50" y="21"/>
      <point x="64" y="-15"/>
      <point x="97" y="-15" type="curve" smooth="yes"/>
      <point x="130" y="-15"/>
      <point x="155" y="-1"/>
      <point x="180" y="19" type="curve" smooth="yes"/>
      <point x="202" y="37"/>
      <point x="195" y="97"/>
      <point x="197" y="137" type="curve"/>
      <point x="229" y="118"/>
      <point x="271" y="104"/>
      <point x="326" y="104" type="curve" smooth="yes"/>
      <point x="441" y="104"/>
      <point x="538" y="174"/>
      <point x="538" y="324" type="curve" smooth="yes"/>
      <point x="538" y="418"/>
      <point x="463" y="480"/>
      <point x="371" y="480" type="curve" smooth="yes"/>
      <point x="311" y="480"/>
      <point x="262" y="469"/>
      <point x="224" y="453" type="curve"/>
      <point x="224" y="456" type="line" smooth="yes"/>
      <point x="224" y="536"/>
      <point x="305" y="576"/>
      <point x="307" y="649" type="curve" smooth="yes"/>
      <point x="307" y="672"/>
      <point x="285" y="747"/>
      <point x="244" y="747" type="curve" smooth="yes"/>
      <point x="231" y="747"/>
      <point x="217" y="740"/>
    </contour>
    <contour>
      <point x="284" y="213" type="curve" smooth="yes"/>
      <point x="255" y="213"/>
      <point x="228" y="216"/>
      <point x="202" y="222" type="curve"/>
      <point x="202" y="231" type="line" smooth="yes"/>
      <point x="202" y="264"/>
      <point x="205" y="300"/>
      <point x="210" y="339" type="curve"/>
      <point x="235" y="357"/>
      <point x="264" y="365"/>
      <point x="306" y="365" type="curve" smooth="yes"/>
      <point x="333" y="365"/>
      <point x="391" y="343"/>
      <point x="391" y="298" type="curve" smooth="yes"/>
      <point x="391" y="234"/>
      <point x="357" y="213"/>
    </contour>
  </outline>
</glyph>
<glyph name="apostrophe" format="1">
  <advance width="346"/>
  <unicode hex="02BC"/>
  <outline>
    <contour>
      <point x="109" y="675" type="curve" smooth="yes"/>
      <point x="109" y="651"/>
      <point x="114" y="624"/>
      <point x="143" y="605" type="curve"/>
      <point x="125" y="554"/>
      <point x="60" y="559"/>
      <point x="60" y="521" type="curve" smooth="yes"/>
      <point x="60" y="500"/>
      <point x="88" y="494"/>
      <point x="106" y="494" type="curve" smooth="yes"/>
      <point x="206" y="494"/>
      <point x="296" y="619"/>
      <point x="296" y="712" type="curve" smooth="yes"/>
      <point x="296" y="762"/>
      <point x="264" y="780"/>
      <point x="228" y="780" type="curve" smooth="yes"/>
      <point x="166" y="780"/>
      <point x="109" y="738"/>
    </contour>
  </outline>
</glyph>
<glyph name="tilde" format="1">
  <advance width="500"/>
  <unicode hex="02DC"/>
  <outline>
    <contour>
      <point x="224" y="475" type="move" name="_top"/>
    </contour>
    <contour>
      <point x="115" y="632" type="curve" smooth="yes"/>
      <point x="128" y="655"/>
      <point x="141" y="665"/>
      <point x="152" y="665" type="curve" smooth="yes"/>
      <point x="224" y="665"/>
      <point x="263" y="564"/>
      <point x="346" y="564" type="curve" smooth="yes"/>
      <point x="412" y="564"/>
      <point x="464" y="593"/>
      <point x="497" y="662" type="curve"/>
      <point x="500" y="664"/>
      <point x="500" y="667"/>
      <point x="500" y="670" type="curve" smooth="yes"/>
      <point x="500" y="683"/>
      <point x="486" y="688"/>
      <point x="467" y="688" type="curve" smooth="yes"/>
      <point x="411" y="688"/>
      <point x="399" y="648"/>
      <point x="376" y="648" type="curve" smooth="yes"/>
      <point x="314" y="648"/>
      <point x="268" y="757"/>
      <point x="187" y="757" type="curve" smooth="yes"/>
      <point x="142" y="757"/>
      <point x="75" y="733"/>
      <point x="18" y="663" type="curve" smooth="yes"/>
      <point x="9" y="652"/>
      <point x="-1" y="638"/>
      <point x="0" y="625" type="curve" smooth="yes"/>
      <point x="0" y="616"/>
      <point x="5" y="603"/>
      <point x="20" y="603" type="curve" smooth="yes"/>
      <point x="47" y="603"/>
      <point x="102" y="611"/>
    </contour>
  </outline>
</glyph>
<glyph name="quotesinglbase" format="1">
  <advance width="366"/>
  <unicode hex="201A"/>
  <outline>
    <contour>
      <point x="129" y="60" type="curve" smooth="yes"/>
      <point x="129" y="36"/>
      <point x="134" y="9"/>
      <point x="163" y="-10" type="curve"/>
      <point x="145" y="-61"/>
      <point x="80" y="-56"/>
      <point x="80" y="-94" type="curve" smooth="yes"/>
      <point x="80" y="-115"/>
      <point x="108" y="-121"/>
      <point x="126" y="-121" type="curve" smooth="yes"/>
      <point x="226" y="-121"/>
      <point x="316" y="4"/>
      <point x="316" y="97" type="curve" smooth="yes"/>
      <point x="316" y="147"/>
      <point x="284" y="165"/>
      <point x="248" y="165" type="curve" smooth="yes"/>
      <point x="186" y="165"/>
      <point x="129" y="123"/>
    </contour>
  </outline>
</glyph>
<glyph name="quotedblleft" format="1">
  <advance width="547"/>
  <unicode hex="201C"/>
  <outline>
    <contour>
      <point x="227" y="589" type="curve" smooth="yes"/>
      <point x="227" y="613"/>
      <point x="222" y="640"/>
      <point x="193" y="659" type="curve"/>
      <point x="211" y="710"/>
      <point x="276" y="705"/>
      <point x="276" y="743" type="curve" smooth="yes"/>
      <point x="276" y="764"/>
      <point x="248" y="770"/>
      <point x="230" y="770" type="curve" smooth="yes"/>
      <point x="132" y="770"/>
      <point x="50" y="656"/>
      <point x="50" y="572" type="curve" smooth="yes"/>
      <point x="50" y="522"/>
      <point x="82" y="504"/>
      <point x="118" y="504" type="curve" smooth="yes"/>
      <point x="180" y="504"/>
      <point x="227" y="545"/>
    </contour>
    <contour>
      <point x="438" y="599" type="curve" smooth="yes"/>
      <point x="438" y="623"/>
      <point x="433" y="650"/>
      <point x="404" y="669" type="curve"/>
      <point x="422" y="720"/>
      <point x="487" y="715"/>
      <point x="487" y="753" type="curve" smooth="yes"/>
      <point x="487" y="774"/>
      <point x="459" y="780"/>
      <point x="441" y="780" type="curve" smooth="yes"/>
      <point x="341" y="780"/>
      <point x="251" y="655"/>
      <point x="251" y="562" type="curve" smooth="yes"/>
      <point x="251" y="512"/>
      <point x="283" y="494"/>
      <point x="319" y="494" type="curve" smooth="yes"/>
      <point x="381" y="494"/>
      <point x="438" y="536"/>
    </contour>
  </outline>
</glyph>
<glyph name="quotedblbase" format="1">
  <advance width="567"/>
  <unicode hex="201E"/>
  <outline>
    <contour>
      <point x="340" y="70" type="curve" smooth="yes"/>
      <point x="340" y="46"/>
      <point x="345" y="19"/>
      <point x="374" y="0" type="curve"/>
      <point x="356" y="-51"/>
      <point x="291" y="-46"/>
      <point x="291" y="-84" type="curve" smooth="yes"/>
      <point x="291" y="-105"/>
      <point x="319" y="-111"/>
      <point x="337" y="-111" type="curve" smooth="yes"/>
      <point x="435" y="-111"/>
      <point x="517" y="2"/>
      <point x="517" y="87" type="curve" smooth="yes"/>
      <point x="517" y="137"/>
      <point x="485" y="155"/>
      <point x="449" y="155" type="curve" smooth="yes"/>
      <point x="387" y="155"/>
      <point x="340" y="114"/>
    </contour>
    <contour>
      <point x="129" y="60" type="curve" smooth="yes"/>
      <point x="129" y="36"/>
      <point x="134" y="9"/>
      <point x="163" y="-10" type="curve"/>
      <point x="145" y="-61"/>
      <point x="80" y="-56"/>
      <point x="80" y="-94" type="curve" smooth="yes"/>
      <point x="80" y="-115"/>
      <point x="108" y="-121"/>
      <point x="126" y="-121" type="curve" smooth="yes"/>
      <point x="226" y="-121"/>
      <point x="316" y="4"/>
      <point x="316" y="97" type="curve" smooth="yes"/>
      <point x="316" y="147"/>
      <point x="284" y="165"/>
      <point x="248" y="165" type="curve" smooth="yes"/>
      <point x="186" y="165"/>
      <point x="129" y="123"/>
    </contour>
  </outline>
</glyph>
<glyph name="bullet" format="1">
  <advance width="456"/>
  <unicode hex="2022"/>
  <outline>
    <contour>
      <point x="120" y="299" type="curve" smooth="yes"/>
      <point x="120" y="221"/>
      <point x="150" y="187"/>
      <point x="228" y="187" type="curve" smooth="yes"/>
      <point x="305" y="187"/>
      <point x="336" y="221"/>
      <point x="336" y="299" type="curve" smooth="yes"/>
      <point x="336" y="376"/>
      <point x="310" y="412"/>
      <point x="228" y="412" type="curve" smooth="yes"/>
      <point x="150" y="412"/>
      <point x="120" y="376"/>
    </contour>
  </outline>
</glyph>
<glyph name="guilsinglleft" format="1">
  <advance width="539"/>
  <unicode hex="2039"/>
  <outline>
    <contour>
      <point x="115" y="247" type="curve"/>
      <point x="104" y="234"/>
      <point x="100" y="228"/>
      <point x="100" y="223" type="curve" smooth="yes"/>
      <point x="100" y="217"/>
      <point x="105" y="212"/>
      <point x="112" y="206" type="curve" smooth="yes"/>
      <point x="222" y="107"/>
      <point x="263" y="66"/>
      <point x="343" y="14" type="curve" smooth="yes"/>
      <point x="348" y="11"/>
      <point x="356" y="8"/>
      <point x="366" y="8" type="curve" smooth="yes"/>
      <point x="404" y="8"/>
      <point x="465" y="36"/>
      <point x="465" y="53" type="curve" smooth="yes"/>
      <point x="465" y="63"/>
      <point x="323" y="178"/>
      <point x="243" y="244" type="curve"/>
      <point x="274" y="284"/>
      <point x="443" y="428"/>
      <point x="467" y="444" type="curve" smooth="yes"/>
      <point x="476" y="450"/>
      <point x="479" y="456"/>
      <point x="479" y="461" type="curve" smooth="yes"/>
      <point x="479" y="473"/>
      <point x="460" y="474"/>
      <point x="452" y="474" type="curve" smooth="yes"/>
      <point x="328" y="474"/>
      <point x="189" y="345"/>
    </contour>
  </outline>
</glyph>
<glyph name="guilsinglright" format="1">
  <advance width="539"/>
  <unicode hex="203A"/>
  <outline>
    <contour>
      <point x="464" y="235" type="curve"/>
      <point x="475" y="248"/>
      <point x="479" y="254"/>
      <point x="479" y="259" type="curve" smooth="yes"/>
      <point x="479" y="265"/>
      <point x="474" y="270"/>
      <point x="467" y="276" type="curve" smooth="yes"/>
      <point x="357" y="375"/>
      <point x="316" y="416"/>
      <point x="236" y="468" type="curve" smooth="yes"/>
      <point x="231" y="471"/>
      <point x="223" y="474"/>
      <point x="213" y="474" type="curve" smooth="yes"/>
      <point x="175" y="474"/>
      <point x="114" y="446"/>
      <point x="114" y="429" type="curve" smooth="yes"/>
      <point x="114" y="418"/>
      <point x="256" y="303"/>
      <point x="336" y="238" type="curve"/>
      <point x="305" y="198"/>
      <point x="136" y="54"/>
      <point x="112" y="38" type="curve" smooth="yes"/>
      <point x="103" y="32"/>
      <point x="100" y="26"/>
      <point x="100" y="21" type="curve" smooth="yes"/>
      <point x="100" y="9"/>
      <point x="119" y="8"/>
      <point x="127" y="8" type="curve" smooth="yes"/>
      <point x="251" y="8"/>
      <point x="390" y="137"/>
    </contour>
  </outline>
</glyph>
<glyph name="Euro" format="1">
  <advance width="663"/>
  <unicode hex="20AC"/>
  <outline>
    <contour>
      <point x="118" y="468" type="line" smooth="yes"/>
      <point x="82" y="468"/>
      <point x="50" y="425"/>
      <point x="50" y="391" type="curve" smooth="yes"/>
      <point x="50" y="384"/>
      <point x="53" y="382"/>
      <point x="56" y="382" type="curve" smooth="yes"/>
      <point x="132" y="386" type="line"/>
      <point x="129" y="373"/>
      <point x="126" y="360"/>
      <point x="124" y="348" type="curve"/>
      <point x="68" y="348" type="line" smooth="yes"/>
      <point x="32" y="348"/>
      <point x="0" y="305"/>
      <point x="0" y="271" type="curve" smooth="yes"/>
      <point x="0" y="264"/>
      <point x="3" y="262"/>
      <point x="6" y="262" type="curve" smooth="yes"/>
      <point x="6" y="262"/>
      <point x="71" y="266"/>
      <point x="115" y="267" type="curve"/>
      <point x="115" y="249" type="line" smooth="yes"/>
      <point x="115" y="89"/>
      <point x="221" y="-8"/>
      <point x="401" y="-8" type="curve" smooth="yes"/>
      <point x="541" y="-8"/>
      <point x="684" y="68"/>
      <point x="684" y="198" type="curve" smooth="yes"/>
      <point x="684" y="221"/>
      <point x="679" y="236"/>
      <point x="669" y="236" type="curve" smooth="yes"/>
      <point x="661" y="236"/>
      <point x="648" y="227"/>
      <point x="633" y="207" type="curve" smooth="yes"/>
      <point x="580" y="139"/>
      <point x="491" y="104"/>
      <point x="418" y="104" type="curve" smooth="yes"/>
      <point x="325" y="104"/>
      <point x="278" y="163"/>
      <point x="272" y="266" type="curve"/>
      <point x="354" y="264"/>
      <point x="444" y="262"/>
      <point x="444" y="262" type="curve"/>
      <point x="466" y="262"/>
      <point x="511" y="309"/>
      <point x="511" y="331" type="curve" smooth="yes"/>
      <point x="511" y="344"/>
      <point x="507" y="348"/>
      <point x="499" y="348" type="curve" smooth="yes"/>
      <point x="276" y="348" type="line"/>
      <point x="278" y="361"/>
      <point x="280" y="374"/>
      <point x="283" y="387" type="curve"/>
      <point x="373" y="385"/>
      <point x="494" y="382"/>
      <point x="494" y="382" type="curve"/>
      <point x="516" y="382"/>
      <point x="561" y="429"/>
      <point x="561" y="451" type="curve" smooth="yes"/>
      <point x="561" y="464"/>
      <point x="557" y="468"/>
      <point x="549" y="468" type="curve" smooth="yes"/>
      <point x="308" y="468" type="line"/>
      <point x="347" y="569"/>
      <point x="418" y="657"/>
      <point x="513" y="657" type="curve" smooth="yes"/>
      <point x="574" y="657"/>
      <point x="613" y="629"/>
      <point x="639" y="592" type="curve" smooth="yes"/>
      <point x="654" y="571"/>
      <point x="667" y="563"/>
      <point x="675" y="563" type="curve" smooth="yes"/>
      <point x="685" y="563"/>
      <point x="693" y="578"/>
      <point x="693" y="601" type="curve" smooth="yes"/>
      <point x="693" y="702"/>
      <point x="627" y="756"/>
      <point x="520" y="756" type="curve" smooth="yes"/>
      <point x="347" y="756"/>
      <point x="220" y="625"/>
      <point x="157" y="468" type="curve"/>
    </contour>
  </outline>
</glyph>
